<svg width="427" height="335" viewBox="0 0 427 335" fill="none" xmlns="http://www.w3.org/2000/svg">
<g filter="url(#filter0_dddddd_527_464)">
<path d="M184.131 138.395C185.305 138.957 186.591 139.246 187.892 139.242C188.987 139.218 190.067 139.507 191.003 140.075C191.94 140.643 192.695 141.466 193.181 142.448C194.363 144.516 195.326 146.703 196.054 148.972C196.354 149.762 196.491 150.605 196.455 151.45C196.419 152.295 196.212 153.123 195.845 153.885C195.255 154.943 194.393 155.824 193.349 156.439C192.305 157.053 191.116 157.379 189.905 157.383C185.75 157.745 181.575 157.791 177.413 157.522C171.841 157.37 166.358 156.085 161.299 153.746C160.072 153.146 158.913 152.415 157.843 151.567C156.345 150.408 155.213 148.842 154.581 147.056C152.361 140.575 150.844 133.875 150.056 127.069C149.374 121.422 149.281 115.719 149.778 110.053C151.319 93.1749 157.954 78.6705 170.695 67.3445C182.047 56.9564 195.64 49.324 210.419 45.0397C214.224 43.996 218.11 43.2763 222.037 42.8883C223.258 42.7634 224.507 42.7356 225.743 42.6523H225.937C227.769 42.6523 229.601 42.6523 231.489 42.6523C240.356 43.22 249.016 45.5809 256.944 49.5923C262.816 52.4515 266.521 57.1568 269.769 62.4588C272.24 66.4979 274.405 70.6896 276.487 74.9507C277.556 77.1298 278.986 79.1146 279.902 81.4048C282.709 88.1982 284.577 95.3427 285.454 102.641C285.766 105.317 285.836 108.016 285.662 110.705C285.308 115.517 284.4 120.273 282.955 124.876C281.47 129.734 277.931 132.594 274.197 135.439C273.569 134.513 272.999 133.548 272.49 132.552C270.277 128.907 267.814 125.419 265.12 122.114C265.48 122.225 265.578 121.92 265.689 121.712C266.091 121.004 266.508 120.324 266.841 119.574C268.298 116.016 269.287 112.283 269.783 108.47C270.144 106.236 270.436 104.001 270.658 101.753C270.963 100.276 270.991 98.7561 270.741 97.2694C268.881 90.1322 266.222 83.2274 262.816 76.6857C259.586 70.2074 253.945 65.2539 247.104 62.8891C245.258 62.2368 243.259 61.9314 241.455 61.1819C237.943 59.8975 234.242 59.2079 230.503 59.1416C227.533 58.9472 224.563 59.2387 221.62 59.1416C215.296 58.9967 209.024 60.3224 203.299 63.014C194.663 66.5952 187.141 72.417 181.508 79.878C174.082 89.9686 170.959 101.558 170.015 113.856V114.106V115.119V116.354C170.015 116.548 170.015 116.757 170.015 116.965C169.199 120.92 169.138 124.993 169.835 128.971C170.207 131.05 171.171 132.978 172.611 134.523C174.785 136.672 177.665 137.959 180.716 138.145C181.846 138.323 182.988 138.406 184.131 138.395Z" fill="#EF6522"/>
<path d="M184.917 138.251C183.715 138.295 182.513 138.234 181.322 138.07C178.27 137.883 175.39 136.596 173.216 134.448C171.776 132.902 170.812 130.975 170.44 128.896C169.743 124.918 169.804 120.844 170.62 116.89C170.62 116.681 170.62 116.473 170.62 116.279C170.898 115.918 170.773 115.46 170.926 115.057C171.643 111.924 172.68 108.873 174.021 105.952C176.042 101.603 178.592 97.5187 181.613 93.7936C184.115 90.7309 186.903 87.9143 189.941 85.3824C193.776 82.2726 198.165 79.9177 202.877 78.4425C208.497 76.4568 214.299 75.0295 220.199 74.1814C222.017 73.9454 223.822 73.7928 225.64 73.6678C227.25 73.5017 228.874 73.5017 230.484 73.6678C233.343 74.0704 236.133 74.8476 238.978 75.3612C239.316 75.4044 239.635 75.5438 239.895 75.7628C240.156 75.9818 240.349 76.2712 240.45 76.5965C241.347 78.8078 241.44 81.2634 240.713 83.5364C240.464 84.3831 240.325 85.2575 239.423 85.7572C237.701 86.7949 235.741 87.3732 233.732 87.4366C230.398 87.4614 227.069 87.7025 223.766 88.1584C219.774 88.5508 215.81 89.1952 211.899 90.0877C207.951 90.9792 204.177 92.5124 200.726 94.6264C198.451 96.139 196.28 97.8038 194.23 99.6092C191.872 101.528 189.817 103.793 188.137 106.327C186.749 108.548 185.763 110.935 186.513 113.628C186.74 114.814 187.211 115.94 187.897 116.934C188.583 117.928 189.468 118.768 190.496 119.402C192.022 120.124 193.715 120.422 195.396 120.262C197.067 120.223 198.729 119.999 200.351 119.596C207.268 117.728 213.899 114.926 220.06 111.268C223.579 109.145 227.298 107.373 231.164 105.98C235.615 104.417 240.382 103.974 245.044 104.689C247.295 104.944 249.441 105.776 251.276 107.104C259.84 114.326 267.209 122.856 273.109 132.379C273.618 133.376 274.188 134.34 274.816 135.266C275.233 136.654 275.954 137.931 276.398 139.333C278.009 144.469 275.704 147.8 270.847 149.132C269.753 149.66 268.506 149.773 267.335 149.452C265.526 148.653 263.854 147.576 262.38 146.259L260.256 144.33C259.604 143.525 258.868 142.831 258.16 142.04C256.087 139.601 254.229 136.986 252.608 134.225C251.22 131.935 250.443 129.381 248.93 127.202C247.388 124.673 245.474 122.39 243.253 120.429C241.721 119.244 239.917 118.459 238.006 118.144C236.094 117.829 234.134 117.994 232.302 118.625C228.551 119.825 224.989 121.554 221.726 123.76C216.674 126.869 211.857 130.367 206.458 132.921C202.598 134.624 198.582 135.949 194.466 136.877C191.33 137.619 188.134 138.079 184.917 138.251Z" fill="#FAE203"/>
<path d="M86.1756 16.6355C86.5503 16.6355 86.9251 16.6355 87.2998 16.6355C88.1277 16.6569 88.9428 16.8449 89.6964 17.1883C90.4499 17.5317 91.1266 18.0234 91.6859 18.6342C95.1601 22.1043 98.9677 25.2238 103.053 27.9476C111.784 34.2629 120.792 40.1757 129.98 45.797C133.922 48.2121 138.197 50.072 142.333 52.1678C145.526 53.7918 148.704 55.3879 151.896 56.9702C153.999 57.9901 155.827 59.4989 157.226 61.3702C157.546 61.7865 157.837 62.2168 158.184 62.6055C161.043 65.8811 161.307 69.6425 160.238 73.7093C159.905 74.9446 159.503 76.166 159.142 77.3875C158.934 78.1213 158.583 78.8069 158.11 79.4047C157.636 80.0026 157.049 80.5009 156.382 80.8711C155.715 81.2412 154.982 81.476 154.224 81.5618C153.466 81.6476 152.699 81.5827 151.966 81.371C150.262 80.9604 148.79 79.8927 147.871 78.4007C145.664 74.9169 143.013 71.7523 140.501 68.4766C139.934 67.8381 139.405 67.166 138.919 66.464C134.08 58.6483 127.706 51.896 120.181 46.6159C117.211 44.4784 114.629 41.9106 111.506 39.8981C103.775 34.8597 95.711 30.3765 87.5913 26.0183C85.4261 24.8524 83.2469 23.705 81.0539 22.5761C80.5726 22.2838 80.1819 21.8636 79.9254 21.3623C79.6689 20.861 79.5567 20.2983 79.6014 19.7369C79.646 19.1756 79.8456 18.6377 80.1781 18.1832C80.5106 17.7287 80.9627 17.3755 81.4842 17.1629C82.2747 16.8416 83.1159 16.6631 83.9687 16.6355H84.1769H85.8563H86.1756Z" fill="#EF6522"/>
<path d="M294.054 64.6596C296.136 64.7429 298.218 64.9234 300.314 64.9095C305.557 64.7592 310.69 63.3653 315.29 60.8427C318.881 58.9455 322.247 56.6501 325.325 53.9999C330.377 49.6566 336.584 46.8786 343.188 46.0052C345.576 45.6998 347.949 45.4222 350.364 45.2834C353.069 44.9835 355.804 45.11 358.47 45.6582C359.957 46.0976 361.287 46.9552 362.301 48.1288C363.217 49.1281 363.036 50.0581 361.857 50.7937C360.875 51.4426 359.694 51.7229 358.525 51.5849C354.816 51.2796 351.081 51.6272 347.491 52.612C345.145 53.1394 342.841 53.8611 340.551 54.6107C338.924 55.159 337.406 55.9907 336.068 57.0674C332.35 60.1775 328.472 63.0916 324.451 65.7978C321.786 67.5189 318.899 68.8236 316.123 70.3781C311.639 72.9043 307.434 75.8468 303.145 78.706C300.571 80.4287 297.54 81.3423 294.442 81.3293C293.024 81.3721 291.62 81.031 290.379 80.342C289.137 79.6531 288.105 78.6419 287.391 77.4152C286.13 75.478 285.455 73.2174 285.448 70.9056C285.448 67.505 288.349 64.9234 292.097 64.729C292.735 64.729 293.374 64.729 294.012 64.729L294.054 64.6596Z" fill="#EF6522"/>
<path d="M127.426 103.148C129.647 103.148 131.881 103.329 134.102 103.343C135.908 103.457 137.615 104.21 138.918 105.466C140.399 106.481 141.607 107.846 142.435 109.439C143.263 111.032 143.685 112.804 143.665 114.599C143.568 118 142.069 119.832 138.877 120.97C138.004 121.31 137.064 121.445 136.131 121.366C135.197 121.287 134.294 120.995 133.491 120.512C129.461 118.324 125.572 115.886 121.846 113.211C119.374 111.546 116.495 110.586 113.518 110.435C108.976 110.136 104.471 109.43 100.055 108.326C98.0115 107.812 95.9156 107.537 93.8089 107.507C90.5035 107.392 87.2148 106.984 83.982 106.285C80.3316 105.452 79.7071 102.524 79.9846 100.039C80.0177 99.5667 80.2077 99.1188 80.5246 98.7667C80.8415 98.4146 81.267 98.1786 81.7335 98.0961C83.6423 97.6407 85.6394 97.7176 87.5075 98.3182C91.1461 99.5044 94.8795 100.377 98.6669 100.928C101.707 101.4 104.746 101.885 107.8 102.107C109.632 102.246 111.478 102.413 113.352 102.538C117.974 102.857 122.596 102.996 127.232 103.121L127.426 103.148Z" fill="#EF6522"/>
<path d="M188.733 47.6153C186.52 47.354 184.35 46.8034 182.279 45.9775C177.949 44.5895 175.922 41.3277 174.701 37.2748C173.735 34.3552 173.088 31.3396 172.772 28.2807C172.318 22.6443 171.314 17.0657 169.774 11.6249C169.135 9.40417 168.136 7.29444 167.608 5.03203C167.521 4.57347 167.521 4.10261 167.608 3.64405C167.609 3.43828 167.684 3.23974 167.819 3.08441C167.954 2.92908 168.14 2.82725 168.344 2.79738C169.052 2.79738 169.843 2.56142 170.356 3.28317C171.148 4.39356 171.925 5.50395 172.674 6.64209C176.019 11.7082 179.156 16.8993 182.779 21.7711C184.694 24.3388 187.193 26.3792 189.261 28.8081C190.649 30.5154 192.3 32.0838 193.758 33.7771C195.133 35.5494 196.023 37.6495 196.34 39.8704C196.543 40.7487 196.58 41.6571 196.451 42.5492C196.034 45.3251 194.174 47.0324 190.982 47.532C190.238 47.6405 189.484 47.6684 188.733 47.6153Z" fill="#EF6522"/>
<path d="M248.463 42.1218C245.881 42.4133 242.689 39.6373 241.856 37.4166C241.639 36.8247 241.543 36.1954 241.573 35.5658C241.602 34.9361 241.757 34.3188 242.029 33.7499C242.3 33.181 242.683 32.6721 243.154 32.253C243.625 31.8339 244.174 31.5131 244.771 31.3094C249.24 29.5884 253.07 26.5298 255.736 22.5513C257.194 20.4022 258.121 17.9383 258.443 15.3615C258.563 14.5287 258.796 13.7161 259.137 12.9464C260.55 9.38453 261.483 5.65053 261.913 1.84258C261.913 1.60663 261.996 1.38455 262.024 1.14859C262.121 0.565639 262.454 0.454606 262.967 0.676683C263.926 1.05154 264.712 1.76822 265.173 2.68841C265.635 3.60859 265.739 4.66705 265.466 5.65953C264.73 8.87965 263.856 12.072 263.412 15.3754C263.037 18.1514 262.024 20.6359 261.635 23.3563C261.468 24.6194 261.635 25.8963 261.427 27.1732C261.237 28.2594 260.876 29.3088 260.358 30.2823C259.359 32.1145 258.706 34.1132 257.693 35.9314C256.619 38.2428 254.808 40.1322 252.544 41.3029C251.256 41.86 249.866 42.1391 248.463 42.1218Z" fill="#EE6422"/>
<path d="M252.567 134.212C254.188 136.972 256.045 139.587 258.119 142.026C258.799 142.817 259.507 143.511 260.215 144.316C259.77 144.524 259.312 144.705 258.827 144.955C257.593 145.746 256.106 146.043 254.663 145.787C252.531 145.614 250.434 145.147 248.431 144.399C248.019 144.287 247.64 144.082 247.321 143.8C247.001 143.517 246.752 143.165 246.591 142.77C246.43 142.376 246.362 141.949 246.392 141.524C246.422 141.099 246.55 140.687 246.765 140.319C247.601 138.399 248.809 136.663 250.318 135.211C250.998 134.614 251.859 134.614 252.567 134.212Z" fill="#EF6522"/>
<path d="M226.793 42.5079H226.598C226.667 42.4381 226.723 42.4242 226.793 42.5079Z" fill="#61290C"/>
</g>
<defs>
<filter id="filter0_dddddd_527_464" x="0.835068" y="0.570312" width="440.803" height="334.326" filterUnits="userSpaceOnUse" color-interpolation-filters="sRGB">
<feFlood flood-opacity="0" result="BackgroundImageFix"/>
<feColorMatrix in="SourceAlpha" type="matrix" values="0 0 0 0 0 0 0 0 0 0 0 0 0 0 0 0 0 0 127 0" result="hardAlpha"/>
<feOffset dy="2.72425"/>
<feGaussianBlur stdDeviation="1.0897"/>
<feColorMatrix type="matrix" values="0 0 0 0 0 0 0 0 0 0 0 0 0 0 0 0 0 0 0.104024 0"/>
<feBlend mode="normal" in2="BackgroundImageFix" result="effect1_dropShadow_527_464"/>
<feColorMatrix in="SourceAlpha" type="matrix" values="0 0 0 0 0 0 0 0 0 0 0 0 0 0 0 0 0 0 127 0" result="hardAlpha"/>
<feOffset dy="6.54675"/>
<feGaussianBlur stdDeviation="2.6187"/>
<feColorMatrix type="matrix" values="0 0 0 0 0 0 0 0 0 0 0 0 0 0 0 0 0 0 0.14944 0"/>
<feBlend mode="normal" in2="effect1_dropShadow_527_464" result="effect2_dropShadow_527_464"/>
<feColorMatrix in="SourceAlpha" type="matrix" values="0 0 0 0 0 0 0 0 0 0 0 0 0 0 0 0 0 0 127 0" result="hardAlpha"/>
<feOffset dy="12.327"/>
<feGaussianBlur stdDeviation="4.93078"/>
<feColorMatrix type="matrix" values="0 0 0 0 0 0 0 0 0 0 0 0 0 0 0 0 0 0 0.185 0"/>
<feBlend mode="normal" in2="effect2_dropShadow_527_464" result="effect3_dropShadow_527_464"/>
<feColorMatrix in="SourceAlpha" type="matrix" values="0 0 0 0 0 0 0 0 0 0 0 0 0 0 0 0 0 0 127 0" result="hardAlpha"/>
<feOffset dy="21.9892"/>
<feGaussianBlur stdDeviation="8.79567"/>
<feColorMatrix type="matrix" values="0 0 0 0 0 0 0 0 0 0 0 0 0 0 0 0 0 0 0.22056 0"/>
<feBlend mode="normal" in2="effect3_dropShadow_527_464" result="effect4_dropShadow_527_464"/>
<feColorMatrix in="SourceAlpha" type="matrix" values="0 0 0 0 0 0 0 0 0 0 0 0 0 0 0 0 0 0 127 0" result="hardAlpha"/>
<feOffset dy="41.1284"/>
<feGaussianBlur stdDeviation="16.4513"/>
<feColorMatrix type="matrix" values="0 0 0 0 0 0 0 0 0 0 0 0 0 0 0 0 0 0 0.265976 0"/>
<feBlend mode="normal" in2="effect4_dropShadow_527_464" result="effect5_dropShadow_527_464"/>
<feColorMatrix in="SourceAlpha" type="matrix" values="0 0 0 0 0 0 0 0 0 0 0 0 0 0 0 0 0 0 127 0" result="hardAlpha"/>
<feOffset dy="98.4459"/>
<feGaussianBlur stdDeviation="39.3784"/>
<feColorMatrix type="matrix" values="0 0 0 0 0 0 0 0 0 0 0 0 0 0 0 0 0 0 0.37 0"/>
<feBlend mode="normal" in2="effect5_dropShadow_527_464" result="effect6_dropShadow_527_464"/>
<feBlend mode="normal" in="SourceGraphic" in2="effect6_dropShadow_527_464" result="shape"/>
</filter>
</defs>
</svg>
