<svg width="105" height="79" viewBox="0 0 105 79" fill="none" xmlns="http://www.w3.org/2000/svg">
<g filter="url(#filter0_dddddd_1_1401)">
<path d="M43.8041 32.2473C44.0788 32.3787 44.3796 32.4464 44.6841 32.4454C44.9404 32.4399 45.1929 32.5075 45.412 32.6404C45.6312 32.7733 45.8079 32.9659 45.9215 33.1956C46.1982 33.6795 46.4235 34.1911 46.5937 34.722C46.664 34.9069 46.6959 35.1041 46.6875 35.3018C46.6791 35.4994 46.6306 35.6933 46.545 35.8716C46.4067 36.119 46.2051 36.3252 45.9609 36.469C45.7166 36.6128 45.4385 36.6891 45.155 36.69C44.183 36.7746 43.2059 36.7855 42.2323 36.7224C40.9286 36.6869 39.6457 36.3864 38.4619 35.8391C38.1749 35.6986 37.9038 35.5277 37.6533 35.3292C37.3029 35.058 37.0379 34.6916 36.8901 34.2738C36.3707 32.7574 36.0158 31.1896 35.8314 29.5974C35.6718 28.2761 35.65 26.9417 35.7665 25.6159C36.1269 21.6669 37.6792 18.2733 40.6605 15.6233C43.3165 13.1927 46.4969 11.4069 49.9549 10.4045C50.8451 10.1603 51.7544 9.99195 52.673 9.90115C52.9588 9.87193 53.2511 9.86543 53.5401 9.84595H53.5856C54.0143 9.84595 54.4429 9.84595 54.8846 9.84595C56.9593 9.97875 58.9855 10.5312 60.8406 11.4697C62.2143 12.1387 63.0814 13.2396 63.8413 14.4802C64.4193 15.4252 64.9259 16.4059 65.4131 17.4029C65.6631 17.9128 65.9976 18.3772 66.212 18.913C66.8688 20.5025 67.3059 22.1741 67.511 23.8817C67.5841 24.5079 67.6004 25.1394 67.5597 25.7685C67.4769 26.8945 67.2645 28.0071 66.9264 29.0843C66.5789 30.2209 65.7508 30.8899 64.8772 31.5556C64.7303 31.3389 64.5969 31.1133 64.4778 30.8801C63.9599 30.0273 63.3838 29.2113 62.7534 28.438C62.8378 28.464 62.8605 28.3925 62.8865 28.3438C62.9807 28.1782 63.0781 28.0191 63.156 27.8437C63.497 27.0112 63.7285 26.1378 63.8445 25.2457C63.929 24.7228 63.9972 24.2 64.0491 23.6739C64.1205 23.3285 64.1271 22.9728 64.0686 22.6249C63.6334 20.955 63.0113 19.3395 62.2143 17.8089C61.4587 16.2931 60.1388 15.1341 58.5381 14.5808C58.1061 14.4282 57.6385 14.3568 57.2163 14.1814C56.3947 13.8809 55.5287 13.7195 54.654 13.704C53.9591 13.6585 53.2641 13.7267 52.5756 13.704C51.0958 13.6701 49.6284 13.9803 48.2889 14.6101C46.2684 15.448 44.5083 16.8101 43.1903 18.5558C41.4529 20.9167 40.7222 23.6284 40.5013 26.5057V26.5642V26.8013V27.0903C40.5013 27.1357 40.5013 27.1845 40.5013 27.2332C40.3103 28.1585 40.296 29.1116 40.4591 30.0423C40.5462 30.5287 40.7717 30.9798 41.1086 31.3413C41.6174 31.844 42.2912 32.1452 43.0052 32.1889C43.2694 32.2304 43.5366 32.2499 43.8041 32.2473Z" fill="#EF6522"/>
<path d="M43.988 32.2136C43.7069 32.2239 43.4255 32.2098 43.1469 32.1714C42.4329 32.1277 41.7591 31.8265 41.2503 31.3238C40.9134 30.9623 40.6879 30.5112 40.6008 30.0248C40.4377 29.0941 40.452 28.141 40.643 27.2157C40.643 27.167 40.643 27.1182 40.643 27.0728C40.708 26.9883 40.6788 26.8812 40.7145 26.787C40.8823 26.054 41.125 25.3401 41.4387 24.6566C41.9115 23.6389 42.5082 22.6834 43.2151 21.8118C43.8004 21.0952 44.4528 20.4362 45.1636 19.8438C46.0608 19.1162 47.0878 18.5652 48.1903 18.22C49.5052 17.7554 50.8627 17.4215 52.2432 17.2231C52.6686 17.1678 53.0908 17.1321 53.5162 17.1029C53.893 17.064 54.2728 17.064 54.6496 17.1029C55.3186 17.1971 55.9713 17.3789 56.6371 17.4991C56.7161 17.5092 56.7906 17.5418 56.8516 17.5931C56.9127 17.6443 56.9577 17.712 56.9813 17.7881C57.1911 18.3055 57.213 18.8801 57.043 19.4119C56.9846 19.61 56.9521 19.8146 56.741 19.9315C56.3381 20.1743 55.8797 20.3096 55.4095 20.3244C54.6294 20.3302 53.8506 20.3866 53.0778 20.4933C52.1437 20.5851 51.2163 20.7359 50.3012 20.9447C49.3775 21.1533 48.4944 21.512 47.6869 22.0067C47.1546 22.3606 46.6468 22.7501 46.1671 23.1725C45.6153 23.6215 45.1346 24.1514 44.7414 24.7443C44.4166 25.2639 44.1861 25.8225 44.3614 26.4525C44.4146 26.73 44.5249 26.9935 44.6853 27.2261C44.8458 27.4586 45.0529 27.6553 45.2935 27.8035C45.6505 27.9725 46.0466 28.0421 46.4399 28.0048C46.8309 27.9956 47.2197 27.9433 47.5992 27.8489C49.2177 27.4118 50.7691 26.7563 52.2107 25.9004C53.0339 25.4035 53.9041 24.9891 54.8087 24.6631C55.85 24.2974 56.9654 24.1937 58.0562 24.3611C58.5829 24.4207 59.0851 24.6153 59.5144 24.9262C61.5182 26.6159 63.2423 28.6117 64.6227 30.8399C64.7419 31.0731 64.8753 31.2987 65.0222 31.5154C65.1196 31.8401 65.2885 32.1389 65.3924 32.4669C65.7691 33.6685 65.23 34.4479 64.0934 34.7597C63.8375 34.883 63.5457 34.9095 63.2718 34.8344C62.8486 34.6475 62.4574 34.3955 62.1124 34.0874L61.6155 33.636C61.4629 33.4477 61.2908 33.2853 61.1251 33.1002C60.64 32.5295 60.2053 31.9178 59.8261 31.2718C59.5014 30.736 59.3195 30.1384 58.9655 29.6286C58.6047 29.0368 58.1569 28.5026 57.6373 28.0438C57.2787 27.7666 56.8567 27.5828 56.4095 27.5091C55.9622 27.4354 55.5036 27.4741 55.075 27.6216C54.1972 27.9025 53.364 28.3071 52.6004 28.8232C51.4183 29.5506 50.2914 30.369 49.0281 30.9666C48.125 31.3651 47.1853 31.6751 46.2223 31.8921C45.4886 32.0658 44.7408 32.1734 43.988 32.2136Z" fill="#FAE203"/>
<path d="M20.8852 3.75879C20.9728 3.75879 21.0605 3.75879 21.1482 3.75879C21.3419 3.76379 21.5326 3.80777 21.7089 3.88812C21.8853 3.96847 22.0436 4.08353 22.1744 4.22643C22.9873 5.03835 23.8782 5.76824 24.8341 6.40552C26.8768 7.88314 28.9845 9.26659 31.1343 10.5818C32.0566 11.1469 33.0569 11.5821 34.0246 12.0724C34.7716 12.4524 35.5152 12.8259 36.2622 13.1961C36.7541 13.4347 37.1817 13.7877 37.5092 14.2256C37.5839 14.323 37.6521 14.4237 37.7333 14.5146C38.4023 15.281 38.464 16.1611 38.2139 17.1126C38.136 17.4016 38.0418 17.6874 37.9574 17.9732C37.9088 18.1449 37.8267 18.3053 37.7159 18.4452C37.6051 18.5851 37.4677 18.7016 37.3117 18.7883C37.1556 18.8749 36.984 18.9298 36.8067 18.9499C36.6294 18.9699 36.4498 18.9548 36.2784 18.9052C35.8798 18.8092 35.5354 18.5593 35.3204 18.2103C34.804 17.3951 34.1838 16.6547 33.596 15.8883C33.4632 15.7389 33.3396 15.5816 33.2257 15.4174C32.0936 13.5887 30.6021 12.0088 28.8416 10.7734C28.1466 10.2733 27.5426 9.67253 26.8119 9.20164C25.003 8.02279 23.1162 6.97384 21.2164 5.95411C20.7098 5.68132 20.1999 5.41286 19.6868 5.14873C19.5742 5.08035 19.4828 4.98203 19.4228 4.86474C19.3628 4.74744 19.3365 4.61578 19.347 4.48444C19.3574 4.3531 19.4041 4.22725 19.4819 4.12091C19.5597 4.01457 19.6655 3.93192 19.7875 3.88219C19.9725 3.80702 20.1693 3.76524 20.3688 3.75879H20.4175H20.8105H20.8852Z" fill="#EF6522"/>
<path d="M69.5237 14.9954C70.0108 15.0149 70.498 15.0571 70.9883 15.0539C72.2152 15.0187 73.4162 14.6926 74.4924 14.1023C75.3327 13.6584 76.1203 13.1214 76.8404 12.5013C78.0223 11.4851 79.4746 10.8351 81.0199 10.6307C81.5785 10.5593 82.1338 10.4943 82.6989 10.4619C83.3318 10.3917 83.9718 10.4213 84.5955 10.5496C84.9435 10.6524 85.2546 10.853 85.4918 11.1276C85.7061 11.3614 85.6639 11.579 85.3879 11.7511C85.1581 11.903 84.882 11.9685 84.6085 11.9362C83.7404 11.8648 82.8666 11.9462 82.0267 12.1766C81.4778 12.3 80.9388 12.4688 80.4029 12.6442C80.0221 12.7725 79.667 12.9671 79.354 13.219C78.484 13.9467 77.5767 14.6285 76.6358 15.2617C76.0123 15.6644 75.3368 15.9697 74.6873 16.3334C73.6383 16.9244 72.6543 17.6129 71.6508 18.2819C71.0485 18.685 70.3394 18.8987 69.6146 18.8957C69.2827 18.9057 68.9542 18.8259 68.6638 18.6647C68.3734 18.5035 68.132 18.2669 67.9649 17.9799C67.6697 17.5266 67.5118 16.9977 67.5103 16.4568C67.5103 15.6612 68.189 15.0571 69.0658 15.0116C69.2152 15.0116 69.3646 15.0116 69.514 15.0116L69.5237 14.9954Z" fill="#EF6522"/>
<path d="M30.5369 24.0006C31.0565 24.0006 31.5794 24.0428 32.099 24.0461C32.5216 24.0729 32.921 24.249 33.2259 24.543C33.5723 24.7805 33.8549 25.0997 34.0486 25.4724C34.2424 25.8451 34.3412 26.2598 34.3365 26.6798C34.3138 27.4755 33.963 27.9041 33.2161 28.1704C33.0118 28.25 32.7921 28.2817 32.5737 28.2631C32.3552 28.2445 32.144 28.1762 31.9561 28.0633C31.0131 27.5513 30.1031 26.9808 29.2314 26.3551C28.653 25.9655 27.9794 25.7409 27.2829 25.7056C26.2202 25.6355 25.166 25.4703 24.1328 25.212C23.6547 25.0918 23.1643 25.0275 22.6714 25.0204C21.898 24.9936 21.1286 24.898 20.3722 24.7346C19.5181 24.5397 19.3719 23.8545 19.4369 23.2732C19.4446 23.1626 19.4891 23.0578 19.5632 22.9754C19.6374 22.8931 19.7369 22.8378 19.8461 22.8185C20.2927 22.712 20.7599 22.73 21.197 22.8705C22.0484 23.148 22.9219 23.3523 23.808 23.481C24.5193 23.5914 25.2305 23.7051 25.9449 23.7571C26.3736 23.7895 26.8055 23.8285 27.2439 23.8577C28.3253 23.9324 29.4068 23.9649 30.4914 23.9941L30.5369 24.0006Z" fill="#EF6522"/>
<path d="M44.8809 11.0076C44.3629 10.9464 43.8552 10.8176 43.3708 10.6244C42.3575 10.2996 41.8834 9.53644 41.5976 8.58817C41.3716 7.90505 41.2203 7.19948 41.1462 6.48377C41.0401 5.16499 40.8052 3.85975 40.4447 2.58675C40.2954 2.06714 40.0615 1.57352 39.9381 1.04418C39.9178 0.936884 39.9178 0.826715 39.9381 0.719423C39.9384 0.671279 39.9559 0.624825 39.9875 0.588482C40.0191 0.552138 40.0626 0.528313 40.1103 0.521325C40.2759 0.521325 40.461 0.466116 40.5811 0.634987C40.7663 0.894789 40.9481 1.15459 41.1235 1.42089C41.9061 2.60623 42.6401 3.82081 43.4877 4.96068C43.9358 5.56148 44.5204 6.03886 45.0043 6.60718C45.329 7.00662 45.7155 7.37359 46.0565 7.76979C46.3783 8.18445 46.5865 8.67582 46.6605 9.19545C46.708 9.40095 46.7168 9.6135 46.6865 9.82222C46.5891 10.4717 46.1539 10.8712 45.407 10.9881C45.2328 11.0135 45.0564 11.02 44.8809 11.0076Z" fill="#EF6522"/>
<path d="M58.8566 9.72199C58.2525 9.79018 57.5056 9.14068 57.3107 8.62108C57.26 8.48259 57.2375 8.33537 57.2444 8.18804C57.2513 8.04072 57.2876 7.89627 57.3512 7.76317C57.4147 7.63006 57.5042 7.51099 57.6143 7.41294C57.7245 7.31489 57.8531 7.23983 57.9927 7.19217C59.0385 6.78949 59.9344 6.07386 60.5583 5.14298C60.8993 4.64015 61.1163 4.06366 61.1915 3.46077C61.2197 3.2659 61.2743 3.07578 61.3539 2.8957C61.6846 2.0623 61.903 1.18864 62.0034 0.297679C62.0034 0.242471 62.0229 0.19051 62.0294 0.135302C62.0521 -0.00109341 62.1301 -0.0270724 62.2502 0.0248879C62.4745 0.112594 62.6584 0.280279 62.7664 0.495579C62.8743 0.710879 62.8987 0.958532 62.8348 1.19075C62.6627 1.94417 62.4581 2.6911 62.3541 3.46401C62.2665 4.11352 62.0294 4.69482 61.9385 5.33134C61.8995 5.62686 61.9385 5.92563 61.8897 6.2244C61.8452 6.47855 61.7608 6.72406 61.6397 6.95185C61.4059 7.38052 61.2532 7.84817 61.0162 8.27359C60.7648 8.8144 60.3411 9.25646 59.8113 9.53038C59.5101 9.66074 59.1848 9.72603 58.8566 9.72199Z" fill="#EE6422"/>
<path d="M59.8166 31.2686C60.1958 31.9145 60.6304 32.5262 61.1156 33.0969C61.2747 33.282 61.4403 33.4444 61.606 33.6328C61.502 33.6815 61.3949 33.7237 61.2812 33.7821C60.9925 33.9673 60.6446 34.0368 60.3069 33.977C59.8083 33.9363 59.3176 33.827 58.8488 33.6522C58.7526 33.626 58.6637 33.578 58.5891 33.5119C58.5144 33.4458 58.456 33.3634 58.4183 33.271C58.3806 33.1787 58.3647 33.079 58.3718 32.9795C58.3788 32.88 58.4087 32.7835 58.4591 32.6975C58.6548 32.2482 58.9373 31.8421 59.2905 31.5024C59.4496 31.3627 59.6509 31.3627 59.8166 31.2686Z" fill="#EF6522"/>
<path d="M53.7869 9.81246H53.7407C53.7572 9.79597 53.7704 9.79267 53.7869 9.81246Z" fill="#61290C"/>
</g>
<path d="M22.1872 51.1154H19.0312C18.5052 51.1154 18.0816 51.1427 17.7606 51.1974C17.4463 51.252 17.197 51.3306 17.0126 51.433C16.8349 51.5287 16.7052 51.6482 16.6232 51.7917C16.548 51.9283 16.4934 52.0786 16.4592 52.2425H22.1872V51.1154ZM23.9394 56.5974H22.1872V53.8205H16.3465V56.5974H14.6046V53.0008C14.6046 52.4406 14.6831 51.9385 14.8402 51.4945C15.0042 51.0505 15.2364 50.6748 15.537 50.3674C15.8444 50.06 16.2201 49.8277 16.6642 49.6706C17.1082 49.5066 17.6137 49.4247 18.1807 49.4247H23.9394V56.5974ZM32.8042 51.1154H29.6482C29.1222 51.1154 28.6987 51.1427 28.3776 51.1974C28.0634 51.252 27.814 51.3306 27.6296 51.433C27.452 51.5287 27.3222 51.6482 27.2402 51.7917C27.1651 51.9283 27.1104 52.0786 27.0763 52.2425H32.8042V51.1154ZM34.5564 56.5974H32.8042V53.8205H26.9635V56.5974H25.2216V53.0008C25.2216 52.4406 25.3001 51.9385 25.4573 51.4945C25.6212 51.0505 25.8535 50.6748 26.154 50.3674C26.4614 50.06 26.8372 49.8277 27.2812 49.6706C27.7252 49.5066 28.2307 49.4247 28.7977 49.4247H34.5564V56.5974ZM38.4515 52.2118H42.5298C42.885 52.2118 43.1616 52.1196 43.3597 51.9351C43.5579 51.7439 43.6842 51.4706 43.7389 51.1154H37.642V56.5974H35.9001V49.4247H45.4296V50.7977C45.4296 52.608 44.5484 53.6054 42.7859 53.7898L45.5116 56.5974H43.4007L40.6341 53.8205H38.4515V52.2118ZM48.4292 49.4247V52.9188C48.4292 54.2372 49.3241 54.8964 51.1138 54.8964H53.9932V49.4247H55.7351V56.5974H50.663C50.055 56.5974 49.5051 56.5154 49.0132 56.3515C48.5282 56.1875 48.1115 55.945 47.7631 55.624C47.4216 55.3029 47.1552 54.9067 46.9639 54.4353C46.7794 53.964 46.6872 53.4209 46.6872 52.8061V49.4247H48.4292ZM58.726 49.4247V52.9188C58.726 54.2372 59.6209 54.8964 61.4106 54.8964H64.29V49.4247H66.0319V56.5974H60.9598C60.3518 56.5974 59.8019 56.5154 59.3101 56.3515C58.825 56.1875 58.4083 55.945 58.0599 55.624C57.7184 55.3029 57.452 54.9067 57.2607 54.4353C57.0763 53.964 56.984 53.4209 56.984 52.8061V49.4247H58.726ZM75.9804 51.1154H70.109C69.378 51.1154 68.9682 51.4809 68.8794 52.2118H76.0111V53.5746C76.0111 55.5898 74.925 56.5974 72.7526 56.5974H67.2194V54.8964H73.1215C73.4767 54.8964 73.7534 54.8042 73.9515 54.6198C74.1564 54.4353 74.2862 54.1689 74.3409 53.8205H67.2194V52.4475C67.2194 50.4323 68.309 49.4247 70.4881 49.4247H75.9804V51.1154ZM86.3254 56.5974H84.5834V53.8308H79.0194V56.5974H77.2775V49.4247H79.0194V52.2118H84.5834V49.4247H86.3254V56.5974Z" fill="white"/>
<path d="M43.5723 65.976C43.354 65.976 43.1621 65.9338 42.9968 65.8496C42.8314 65.7623 42.702 65.6406 42.6084 65.4846C42.5179 65.3255 42.4727 65.143 42.4727 64.9371V63.6502C42.4727 63.4475 42.5179 63.2681 42.6084 63.1121C42.702 62.9561 42.8314 62.836 42.9968 62.7518C43.1621 62.6644 43.354 62.6208 43.5723 62.6208C43.7907 62.6208 43.9826 62.6629 44.1479 62.7471C44.3133 62.8313 44.4412 62.9499 44.5316 63.1027C44.6252 63.2556 44.672 63.4319 44.672 63.6315C44.672 63.6471 44.6673 63.6596 44.658 63.669C44.6486 63.6783 44.6377 63.683 44.6252 63.683L44.3866 63.697C44.3554 63.697 44.3398 63.683 44.3398 63.6549V63.6409C44.3398 63.4194 44.2696 63.2431 44.1292 63.1121C43.9888 62.978 43.8032 62.9109 43.5723 62.9109C43.3415 62.9109 43.1559 62.978 43.0155 63.1121C42.8751 63.2463 42.8049 63.4225 42.8049 63.6409V64.9511C42.8049 65.1695 42.8751 65.3458 43.0155 65.4799C43.1559 65.6141 43.3415 65.6811 43.5723 65.6811C43.8032 65.6811 43.9888 65.6156 44.1292 65.4846C44.2696 65.3505 44.3398 65.1726 44.3398 64.9511V64.9418C44.3398 64.9137 44.3554 64.8997 44.3866 64.8997L44.6252 64.9137C44.6564 64.9137 44.672 64.9277 44.672 64.9558C44.672 65.1586 44.6252 65.338 44.5316 65.494C44.4412 65.6468 44.3133 65.7654 44.1479 65.8496C43.9826 65.9338 43.7907 65.976 43.5723 65.976ZM46.2511 65.9713C46.0265 65.9713 45.8331 65.9136 45.6708 65.7981C45.5086 65.6827 45.3963 65.5236 45.3339 65.3208C45.2902 65.1773 45.2684 64.9855 45.2684 64.7452C45.2684 64.505 45.2902 64.3147 45.3339 64.1744C45.3932 63.9747 45.5039 63.8171 45.6662 63.7017C45.8284 63.5863 46.0249 63.5286 46.2558 63.5286C46.4773 63.5286 46.6676 63.5863 46.8267 63.7017C46.9889 63.8171 47.0996 63.9731 47.1589 64.1697C47.2026 64.3038 47.2244 64.4957 47.2244 64.7452C47.2244 64.9979 47.2026 65.1898 47.1589 65.3208C47.0996 65.5236 46.9889 65.6827 46.8267 65.7981C46.6676 65.9136 46.4757 65.9713 46.2511 65.9713ZM46.2511 65.6811C46.4008 65.6811 46.5287 65.6406 46.6348 65.5595C46.7409 65.4752 46.8126 65.3629 46.8501 65.2226C46.8781 65.1102 46.8922 64.9527 46.8922 64.7499C46.8922 64.544 46.8797 64.3865 46.8547 64.2773C46.8173 64.1369 46.744 64.0262 46.6348 63.9451C46.5287 63.8608 46.3993 63.8187 46.2464 63.8187C46.0936 63.8187 45.9641 63.8608 45.858 63.9451C45.752 64.0262 45.6802 64.1369 45.6428 64.2773C45.6178 64.3865 45.6053 64.544 45.6053 64.7499C45.6053 64.9558 45.6178 65.1134 45.6428 65.2226C45.6771 65.3629 45.7473 65.4752 45.8533 65.5595C45.9625 65.6406 46.0951 65.6811 46.2511 65.6811ZM48.8806 63.5333C49.1302 63.5333 49.3283 63.6066 49.4749 63.7532C49.6246 63.8998 49.6995 64.0964 49.6995 64.3428V65.887C49.6995 65.9182 49.6839 65.9338 49.6527 65.9338H49.4141C49.3829 65.9338 49.3673 65.9182 49.3673 65.887V64.4083C49.3673 64.2367 49.3142 64.0964 49.2082 63.9872C49.1052 63.878 48.9711 63.8234 48.8057 63.8234C48.6341 63.8234 48.4953 63.8764 48.3893 63.9825C48.2832 64.0886 48.2302 64.2274 48.2302 64.399V65.887C48.2302 65.9182 48.2146 65.9338 48.1834 65.9338H47.9447C47.9135 65.9338 47.8979 65.9182 47.8979 65.887V63.6128C47.8979 63.5816 47.9135 63.566 47.9447 63.566H48.1834C48.2146 63.566 48.2302 63.5816 48.2302 63.6128V63.814C48.2302 63.8203 48.2317 63.8249 48.2348 63.8281C48.2411 63.8312 48.2458 63.8296 48.2489 63.8234C48.3861 63.63 48.5967 63.5333 48.8806 63.5333ZM51.4031 63.5333C51.6527 63.5333 51.8508 63.6066 51.9974 63.7532C52.1472 63.8998 52.222 64.0964 52.222 64.3428V65.887C52.222 65.9182 52.2064 65.9338 52.1753 65.9338H51.9366C51.9054 65.9338 51.8898 65.9182 51.8898 65.887V64.4083C51.8898 64.2367 51.8368 64.0964 51.7307 63.9872C51.6278 63.878 51.4936 63.8234 51.3283 63.8234C51.1567 63.8234 51.0179 63.8764 50.9118 63.9825C50.8057 64.0886 50.7527 64.2274 50.7527 64.399V65.887C50.7527 65.9182 50.7371 65.9338 50.7059 65.9338H50.4672C50.436 65.9338 50.4204 65.9182 50.4204 65.887V63.6128C50.4204 63.5816 50.436 63.566 50.4672 63.566H50.7059C50.7371 63.566 50.7527 63.5816 50.7527 63.6128V63.814C50.7527 63.8203 50.7542 63.8249 50.7574 63.8281C50.7636 63.8312 50.7683 63.8296 50.7714 63.8234C50.9087 63.63 51.1192 63.5333 51.4031 63.5333ZM54.7266 64.3522C54.7391 64.4395 54.7454 64.5487 54.7454 64.6797V64.8295C54.7454 64.8607 54.7298 64.8763 54.6986 64.8763H53.1871C53.1746 64.8763 53.1684 64.8825 53.1684 64.895C53.1746 65.0666 53.184 65.1773 53.1964 65.2272C53.2308 65.3676 53.3041 65.4784 53.4164 65.5595C53.5287 65.6406 53.6722 65.6811 53.8469 65.6811C53.9779 65.6811 54.0933 65.6515 54.1932 65.5922C54.293 65.533 54.371 65.4487 54.4271 65.3395C54.4459 65.3115 54.4677 65.3052 54.4927 65.3208L54.6752 65.4285C54.7001 65.4441 54.7064 65.4659 54.6939 65.494C54.6159 65.6437 54.4989 65.7623 54.3429 65.8496C54.1869 65.9338 54.0076 65.976 53.8048 65.976C53.5833 65.9728 53.3977 65.9198 53.2479 65.8169C53.0982 65.7139 52.9905 65.5704 52.925 65.3863C52.8689 65.2366 52.8408 65.0213 52.8408 64.7406C52.8408 64.6095 52.8424 64.5035 52.8455 64.4224C52.8517 64.3381 52.8642 64.2633 52.8829 64.1977C52.9359 63.995 53.042 63.8327 53.2011 63.7111C53.3633 63.5894 53.5583 63.5286 53.7861 63.5286C54.0699 63.5286 54.2883 63.6003 54.4412 63.7438C54.594 63.8873 54.6892 64.0901 54.7266 64.3522ZM53.7861 63.8187C53.6332 63.8187 53.5053 63.8593 53.4023 63.9404C53.3025 64.0184 53.237 64.1244 53.2058 64.2586C53.1871 64.3241 53.1746 64.4302 53.1684 64.5768C53.1684 64.5893 53.1746 64.5955 53.1871 64.5955H54.3991C54.4115 64.5955 54.4178 64.5893 54.4178 64.5768C54.4115 64.4364 54.4022 64.3366 54.3897 64.2773C54.3554 64.1369 54.2852 64.0262 54.1791 63.9451C54.0762 63.8608 53.9452 63.8187 53.7861 63.8187ZM56.2999 65.9713C56.0753 65.9713 55.8819 65.9136 55.7196 65.7981C55.5605 65.6796 55.4513 65.5205 55.3921 65.3208C55.3515 65.1836 55.3312 64.9901 55.3312 64.7406C55.3312 64.516 55.3515 64.3257 55.3921 64.1697C55.4482 63.9763 55.5574 63.8218 55.7196 63.7064C55.8819 63.5879 56.0753 63.5286 56.2999 63.5286C56.5276 63.5286 56.7242 63.5863 56.8895 63.7017C57.058 63.8171 57.1672 63.9607 57.2171 64.1322C57.2327 64.1884 57.242 64.2352 57.2451 64.2726V64.282C57.2451 64.3038 57.2311 64.3179 57.203 64.3241L56.9691 64.3569H56.9597C56.9379 64.3569 56.9238 64.3428 56.9176 64.3147L56.9035 64.2445C56.8755 64.126 56.8068 64.0262 56.6976 63.9451C56.5885 63.8608 56.4559 63.8187 56.2999 63.8187C56.1439 63.8187 56.0129 63.8608 55.9068 63.9451C55.8039 64.0262 55.7368 64.1354 55.7056 64.2726C55.6775 64.3912 55.6635 64.5487 55.6635 64.7452C55.6635 64.9511 55.6775 65.1102 55.7056 65.2226C55.7368 65.3629 55.8039 65.4752 55.9068 65.5595C56.0129 65.6406 56.1439 65.6811 56.2999 65.6811C56.4528 65.6811 56.5838 65.6421 56.693 65.5642C56.8053 65.483 56.8755 65.3801 56.9035 65.2553V65.2366L56.9082 65.2179C56.9113 65.1867 56.9301 65.1742 56.9644 65.1804L57.1937 65.2179C57.2249 65.2241 57.2389 65.2413 57.2358 65.2694L57.2171 65.3629C57.1703 65.5439 57.0626 65.6905 56.8942 65.8028C56.7257 65.9151 56.5276 65.9713 56.2999 65.9713ZM58.8995 63.7953C58.8995 63.8265 58.8839 63.8421 58.8527 63.8421H58.3239C58.3114 63.8421 58.3052 63.8483 58.3052 63.8608V65.2413C58.3052 65.391 58.338 65.4971 58.4035 65.5595C58.4721 65.6188 58.5782 65.6484 58.7217 65.6484H58.8387C58.8699 65.6484 58.8855 65.664 58.8855 65.6952V65.887C58.8855 65.9182 58.8699 65.9338 58.8387 65.9338C58.8012 65.937 58.7435 65.9385 58.6655 65.9385C58.4409 65.9385 58.2709 65.8964 58.1555 65.8122C58.04 65.7279 57.9823 65.572 57.9823 65.3442V63.8608C57.9823 63.8483 57.9761 63.8421 57.9636 63.8421H57.6781C57.647 63.8421 57.6314 63.8265 57.6314 63.7953V63.6128C57.6314 63.5816 57.647 63.566 57.6781 63.566H57.9636C57.9761 63.566 57.9823 63.5598 57.9823 63.5473V63.0045C57.9823 62.9733 57.9979 62.9577 58.0291 62.9577H58.2584C58.2896 62.9577 58.3052 62.9733 58.3052 63.0045V63.5473C58.3052 63.5598 58.3114 63.566 58.3239 63.566H58.8527C58.8839 63.566 58.8995 63.5816 58.8995 63.6128V63.7953Z" fill="white"/>
<defs>
<filter id="filter0_dddddd_1_1401" x="0.917673" y="0" width="103.137" height="78.2236" filterUnits="userSpaceOnUse" color-interpolation-filters="sRGB">
<feFlood flood-opacity="0" result="BackgroundImageFix"/>
<feColorMatrix in="SourceAlpha" type="matrix" values="0 0 0 0 0 0 0 0 0 0 0 0 0 0 0 0 0 0 127 0" result="hardAlpha"/>
<feOffset dy="0.637405"/>
<feGaussianBlur stdDeviation="0.254962"/>
<feColorMatrix type="matrix" values="0 0 0 0 0 0 0 0 0 0 0 0 0 0 0 0 0 0 0.104024 0"/>
<feBlend mode="normal" in2="BackgroundImageFix" result="effect1_dropShadow_1_1401"/>
<feColorMatrix in="SourceAlpha" type="matrix" values="0 0 0 0 0 0 0 0 0 0 0 0 0 0 0 0 0 0 127 0" result="hardAlpha"/>
<feOffset dy="1.53177"/>
<feGaussianBlur stdDeviation="0.612709"/>
<feColorMatrix type="matrix" values="0 0 0 0 0 0 0 0 0 0 0 0 0 0 0 0 0 0 0.14944 0"/>
<feBlend mode="normal" in2="effect1_dropShadow_1_1401" result="effect2_dropShadow_1_1401"/>
<feColorMatrix in="SourceAlpha" type="matrix" values="0 0 0 0 0 0 0 0 0 0 0 0 0 0 0 0 0 0 127 0" result="hardAlpha"/>
<feOffset dy="2.88419"/>
<feGaussianBlur stdDeviation="1.15368"/>
<feColorMatrix type="matrix" values="0 0 0 0 0 0 0 0 0 0 0 0 0 0 0 0 0 0 0.185 0"/>
<feBlend mode="normal" in2="effect2_dropShadow_1_1401" result="effect3_dropShadow_1_1401"/>
<feColorMatrix in="SourceAlpha" type="matrix" values="0 0 0 0 0 0 0 0 0 0 0 0 0 0 0 0 0 0 127 0" result="hardAlpha"/>
<feOffset dy="5.1449"/>
<feGaussianBlur stdDeviation="2.05796"/>
<feColorMatrix type="matrix" values="0 0 0 0 0 0 0 0 0 0 0 0 0 0 0 0 0 0 0.22056 0"/>
<feBlend mode="normal" in2="effect3_dropShadow_1_1401" result="effect4_dropShadow_1_1401"/>
<feColorMatrix in="SourceAlpha" type="matrix" values="0 0 0 0 0 0 0 0 0 0 0 0 0 0 0 0 0 0 127 0" result="hardAlpha"/>
<feOffset dy="9.62298"/>
<feGaussianBlur stdDeviation="3.84919"/>
<feColorMatrix type="matrix" values="0 0 0 0 0 0 0 0 0 0 0 0 0 0 0 0 0 0 0.265976 0"/>
<feBlend mode="normal" in2="effect4_dropShadow_1_1401" result="effect5_dropShadow_1_1401"/>
<feColorMatrix in="SourceAlpha" type="matrix" values="0 0 0 0 0 0 0 0 0 0 0 0 0 0 0 0 0 0 127 0" result="hardAlpha"/>
<feOffset dy="23.0338"/>
<feGaussianBlur stdDeviation="9.21353"/>
<feColorMatrix type="matrix" values="0 0 0 0 0 0 0 0 0 0 0 0 0 0 0 0 0 0 0.37 0"/>
<feBlend mode="normal" in2="effect5_dropShadow_1_1401" result="effect6_dropShadow_1_1401"/>
<feBlend mode="normal" in="SourceGraphic" in2="effect6_dropShadow_1_1401" result="shape"/>
</filter>
</defs>
</svg>
