<svg width="200" height="200" viewBox="0 0 200 200" fill="none" xmlns="http://www.w3.org/2000/svg">
<rect width="200" height="200" rx="100" fill="white"/>
<path d="M80.3526 127.977C80.9744 128.274 81.6551 128.428 82.3443 128.425C82.9241 128.413 83.4955 128.566 83.9914 128.867C84.4874 129.167 84.8873 129.603 85.1443 130.123C85.7706 131.218 86.2805 132.376 86.6656 133.577C86.8247 133.996 86.8969 134.442 86.878 134.889C86.859 135.337 86.7493 135.775 86.5554 136.179C86.2425 136.739 85.7862 137.206 85.2335 137.531C84.6807 137.856 84.0513 138.029 83.4099 138.031C81.2101 138.223 78.999 138.247 76.7956 138.104C73.8452 138.024 70.9421 137.344 68.2631 136.105C67.6135 135.788 67 135.401 66.4331 134.952C65.6402 134.338 65.0406 133.509 64.7061 132.563C63.5307 129.131 62.7275 125.583 62.3102 121.98C61.949 118.99 61.8998 115.97 62.1632 112.97C62.979 104.033 66.4919 96.3534 73.2385 90.3564C79.2492 84.856 86.4467 80.8147 94.2721 78.5462C96.2867 77.9936 98.3445 77.6125 100.423 77.407C101.07 77.3409 101.732 77.3262 102.386 77.2821H102.489C103.459 77.2821 104.429 77.2821 105.428 77.2821C110.123 77.5826 114.709 78.8327 118.907 80.9567C122.016 82.4707 123.978 84.9621 125.697 87.7695C127.006 89.9081 128.152 92.1276 129.255 94.3838C129.82 95.5376 130.577 96.5886 131.062 97.8012C132.549 101.398 133.538 105.181 134.002 109.046C134.168 110.463 134.204 111.892 134.112 113.315C133.925 115.863 133.444 118.381 132.679 120.819C131.893 123.391 130.019 124.905 128.042 126.412C127.709 125.921 127.408 125.411 127.138 124.883C125.966 122.953 124.662 121.107 123.235 119.357C123.427 119.415 123.478 119.254 123.537 119.143C123.75 118.769 123.97 118.408 124.147 118.012C124.918 116.128 125.442 114.151 125.705 112.132C125.896 110.949 126.05 109.766 126.168 108.575C126.329 107.793 126.344 106.989 126.212 106.201C125.227 102.422 123.819 98.7663 122.015 95.3024C120.306 91.8722 117.319 89.2494 113.696 87.9973C112.719 87.6519 111.66 87.4902 110.705 87.0933C108.846 86.4133 106.886 86.0481 104.906 86.013C103.334 85.9101 101.761 86.0644 100.203 86.013C96.8541 85.9363 93.5333 86.6382 90.5019 88.0634C85.9295 89.9596 81.9462 93.0422 78.9636 96.9928C75.0318 102.336 73.3782 108.472 72.8784 114.984V115.116V115.653V116.307C72.8784 116.409 72.8784 116.52 72.8784 116.63C72.4462 118.724 72.4138 120.881 72.7829 122.987C72.9799 124.088 73.4902 125.109 74.2527 125.927C75.4041 127.064 76.9291 127.746 78.5447 127.845C79.1427 127.939 79.7474 127.983 80.3526 127.977V127.977Z" fill="#EF6522"/>
<path d="M80.7686 127.9C80.1326 127.924 79.4957 127.892 78.8652 127.805C77.2495 127.706 75.7246 127.024 74.5732 125.887C73.8107 125.069 73.3003 124.048 73.1034 122.947C72.7342 120.841 72.7666 118.684 73.1989 116.59C73.1989 116.48 73.1989 116.369 73.1989 116.267C73.3459 116.075 73.2797 115.833 73.3606 115.62C73.7404 113.961 74.2896 112.345 74.9995 110.799C76.0695 108.496 77.4197 106.333 79.0195 104.361C80.3441 102.739 81.8206 101.248 83.429 99.9071C85.4595 98.2605 87.7837 97.0136 90.2785 96.2325C93.2543 95.1811 96.3265 94.4254 99.4504 93.9763C100.413 93.8513 101.369 93.7705 102.331 93.7044C103.184 93.6164 104.044 93.6164 104.896 93.7044C106.41 93.9175 107.887 94.329 109.394 94.601C109.573 94.6239 109.741 94.6977 109.879 94.8136C110.018 94.9296 110.119 95.0828 110.173 95.2551C110.648 96.4259 110.697 97.7262 110.313 98.9297C110.18 99.378 110.107 99.841 109.629 100.106C108.717 100.655 107.68 100.961 106.616 100.995C104.851 101.008 103.088 101.136 101.339 101.377C99.2252 101.585 97.1265 101.926 95.0556 102.399C92.9653 102.871 90.9667 103.682 89.1394 104.802C87.9348 105.603 86.7857 106.484 85.7 107.44C84.4512 108.456 83.3635 109.655 82.4736 110.997C81.7387 112.173 81.2169 113.437 81.6138 114.863C81.734 115.491 81.9836 116.087 82.3467 116.613C82.7098 117.14 83.1786 117.585 83.723 117.92C84.531 118.303 85.4273 118.46 86.3173 118.376C87.2022 118.355 88.082 118.237 88.941 118.023C92.6037 117.034 96.1146 115.55 99.3769 113.613C101.24 112.489 103.209 111.551 105.256 110.813C107.613 109.986 110.137 109.751 112.606 110.13C113.797 110.265 114.934 110.705 115.905 111.409C120.44 115.233 124.342 119.749 127.466 124.792C127.735 125.319 128.037 125.83 128.37 126.32C128.59 127.055 128.972 127.731 129.208 128.474C130.06 131.193 128.84 132.957 126.268 133.662C125.689 133.941 125.028 134.001 124.408 133.831C123.451 133.408 122.566 132.838 121.785 132.141L120.66 131.119C120.315 130.693 119.925 130.326 119.551 129.907C118.453 128.615 117.469 127.231 116.611 125.769C115.876 124.557 115.464 123.204 114.663 122.05C113.847 120.711 112.833 119.502 111.658 118.464C110.846 117.837 109.891 117.421 108.879 117.254C107.867 117.087 106.829 117.175 105.859 117.509C103.873 118.144 101.987 119.06 100.259 120.228C97.5837 121.874 95.0335 123.726 92.1747 125.078C90.1308 125.98 88.0042 126.682 85.8249 127.173C84.1646 127.566 82.4724 127.809 80.7686 127.9V127.9Z" fill="#FAE203"/>
<path d="M28.4861 63.5065C28.6845 63.5065 28.8829 63.5065 29.0814 63.5065C29.5197 63.5178 29.9513 63.6173 30.3503 63.7992C30.7493 63.981 31.1076 64.2414 31.4037 64.5648C33.2433 66.4022 35.2594 68.0539 37.4227 69.4961C42.0454 72.84 46.8151 75.9708 51.6803 78.9473C53.7675 80.226 56.031 81.2108 58.2211 82.3206C59.9114 83.1804 61.5944 84.0256 63.2847 84.8634C64.398 85.4034 65.3657 86.2023 66.1068 87.1931C66.2759 87.4136 66.4302 87.6414 66.6139 87.8472C68.1279 89.5816 68.2675 91.5733 67.7016 93.7266C67.5253 94.3807 67.3121 95.0274 67.121 95.6741C67.011 96.0627 66.8253 96.4257 66.5745 96.7423C66.3237 97.0588 66.0129 97.3227 65.6598 97.5187C65.3067 97.7147 64.9183 97.839 64.517 97.8844C64.1158 97.9298 63.7095 97.8955 63.3215 97.7834C62.4195 97.566 61.6401 97.0006 61.1535 96.2106C59.9849 94.366 58.5812 92.6903 57.251 90.9559C56.9506 90.6178 56.6708 90.262 56.4132 89.8903C53.8512 85.7519 50.4759 82.1766 46.4917 79.3809C44.919 78.2491 43.552 76.8895 41.8984 75.8238C37.8049 73.156 33.535 70.7822 29.2357 68.4746C28.0892 67.8572 26.9354 67.2497 25.7742 66.652C25.5193 66.4972 25.3125 66.2747 25.1766 66.0093C25.0408 65.7438 24.9814 65.4459 25.0051 65.1487C25.0287 64.8514 25.1344 64.5666 25.3104 64.326C25.4865 64.0853 25.7259 63.8983 26.002 63.7858C26.4206 63.6156 26.866 63.5211 27.3175 63.5065H27.4278H28.317H28.4861Z" fill="#EF6522"/>
<path d="M138.556 88.9348C139.658 88.9789 140.761 89.0744 141.87 89.0671C144.647 88.9875 147.365 88.2494 149.8 86.9137C151.702 85.9092 153.484 84.6938 155.114 83.2905C157.789 80.9908 161.075 79.5199 164.572 79.0574C165.836 78.8957 167.093 78.7487 168.372 78.6752C169.804 78.5164 171.252 78.5834 172.664 78.8737C173.451 79.1063 174.155 79.5604 174.692 80.1818C175.177 80.711 175.082 81.2034 174.457 81.5929C173.937 81.9365 173.312 82.0849 172.693 82.0118C170.729 81.8501 168.751 82.0342 166.851 82.5556C165.609 82.8349 164.389 83.2171 163.176 83.6139C162.314 83.9043 161.511 84.3446 160.802 84.9147C158.833 86.5615 156.78 88.1045 154.651 89.5374C153.24 90.4487 151.711 91.1395 150.241 91.9627C147.867 93.3002 145.641 94.8583 143.37 96.3722C142.007 97.2844 140.402 97.7681 138.762 97.7612C138.011 97.7839 137.267 97.6033 136.61 97.2385C135.953 96.8737 135.406 96.3383 135.028 95.6887C134.36 94.663 134.003 93.466 133.999 92.2419C133.999 90.4414 135.535 89.0744 137.52 88.9715C137.858 88.9715 138.196 88.9715 138.534 88.9715L138.556 88.9348Z" fill="#EF6522"/>
<path d="M50.3279 109.314C51.5038 109.314 52.687 109.41 53.8629 109.417C54.8194 109.478 55.7232 109.876 56.4131 110.542C57.1972 111.079 57.8367 111.801 58.2751 112.645C58.7135 113.488 58.9372 114.427 58.9265 115.377C58.8751 117.178 58.0814 118.148 56.3911 118.751C55.9288 118.931 55.4314 119.002 54.9372 118.96C54.4429 118.918 53.9648 118.764 53.5395 118.508C51.4055 117.35 49.3462 116.058 47.3735 114.642C46.0646 113.761 44.5401 113.253 42.964 113.173C40.5591 113.014 38.1733 112.64 35.8352 112.056C34.7533 111.784 33.6435 111.638 32.5281 111.622C30.7779 111.561 29.0365 111.345 27.3248 110.975C25.3919 110.534 25.0612 108.984 25.2082 107.668C25.2257 107.418 25.3263 107.181 25.4941 106.994C25.6619 106.808 25.8872 106.683 26.1342 106.639C27.1449 106.398 28.2023 106.439 29.1915 106.757C31.1181 107.385 33.0949 107.847 35.1003 108.138C36.7098 108.388 38.3193 108.645 39.9361 108.763C40.9062 108.837 41.8836 108.925 42.8758 108.991C45.3231 109.16 47.7704 109.233 50.225 109.3L50.3279 109.314Z" fill="#EF6522"/>
<path d="M82.7894 79.9101C81.6172 79.7717 80.4683 79.4802 79.372 79.0429C77.079 78.3079 76.006 76.5809 75.3593 74.4349C74.8479 72.889 74.5054 71.2922 74.3377 69.6726C74.0977 66.6881 73.566 63.7343 72.7503 60.8535C72.4122 59.6776 71.8831 58.5605 71.6038 57.3626C71.5577 57.1198 71.5577 56.8705 71.6038 56.6277C71.6044 56.5187 71.6441 56.4136 71.7155 56.3313C71.787 56.2491 71.8855 56.1952 71.9933 56.1794C72.3681 56.1794 72.7871 56.0544 73.059 56.4366C73.4779 57.0245 73.8894 57.6125 74.2863 58.2151C76.0575 60.8976 77.7184 63.6462 79.6366 66.2258C80.6508 67.5854 81.9736 68.6657 83.0687 69.9519C83.8036 70.8558 84.6781 71.6863 85.4498 72.5829C86.1781 73.5213 86.6492 74.6333 86.8168 75.8092C86.9243 76.2743 86.9442 76.7553 86.8756 77.2276C86.6551 78.6975 85.6703 79.6014 83.98 79.866C83.5858 79.9234 83.1867 79.9382 82.7894 79.9101V79.9101Z" fill="#EF6522"/>
<path d="M114.416 77.0012C113.049 77.1555 111.359 75.6857 110.918 74.5098C110.803 74.1964 110.752 73.8632 110.768 73.5298C110.783 73.1964 110.866 72.8695 111.009 72.5683C111.153 72.2671 111.356 71.9976 111.605 71.7757C111.854 71.5538 112.145 71.384 112.461 71.2761C114.828 70.3648 116.855 68.7453 118.267 66.6387C119.039 65.5008 119.53 64.1962 119.7 62.8318C119.764 62.3908 119.888 61.9606 120.068 61.5531C120.816 59.6671 121.31 57.6899 121.538 55.6737C121.538 55.5487 121.582 55.4311 121.596 55.3062C121.648 54.9975 121.824 54.9387 122.096 55.0563C122.604 55.2548 123.02 55.6343 123.264 56.1215C123.508 56.6087 123.564 57.1692 123.419 57.6947C123.029 59.3997 122.566 61.0901 122.331 62.8392C122.133 64.309 121.596 65.6245 121.391 67.065C121.302 67.7338 121.391 68.4099 121.28 69.086C121.18 69.6612 120.989 70.2168 120.714 70.7323C120.185 71.7024 119.84 72.7607 119.303 73.7234C118.735 74.9473 117.776 75.9477 116.577 76.5676C115.895 76.8626 115.159 77.0103 114.416 77.0012V77.0012Z" fill="#EE6422"/>
<path d="M116.589 125.762C117.447 127.224 118.43 128.608 119.528 129.9C119.889 130.318 120.263 130.686 120.638 131.112C120.403 131.222 120.16 131.318 119.903 131.45C119.25 131.869 118.463 132.027 117.698 131.891C116.57 131.799 115.46 131.552 114.399 131.156C114.181 131.097 113.98 130.988 113.811 130.839C113.642 130.689 113.51 130.503 113.424 130.294C113.339 130.085 113.303 129.859 113.319 129.634C113.335 129.409 113.403 129.19 113.517 128.996C113.96 127.979 114.599 127.06 115.398 126.291C115.758 125.975 116.214 125.975 116.589 125.762Z" fill="#EF6522"/>
<path d="M102.942 77.2056H102.838C102.875 77.1686 102.905 77.1613 102.942 77.2056Z" fill="#61290C"/>
</svg>
