<svg width="222" height="240" viewBox="0 0 222 240" fill="none" xmlns="http://www.w3.org/2000/svg">
<circle cx="111" cy="100" r="100" fill="white"/>
<g filter="url(#filter0_dddddd_233_64)">
<path d="M92.3968 137.912C92.9854 138.29 93.6299 138.485 94.2823 138.482C94.8312 138.466 95.3722 138.661 95.8417 139.044C96.3112 139.427 96.6898 139.982 96.9331 140.644C97.526 142.038 98.0087 143.512 98.3733 145.042C98.5238 145.574 98.5922 146.143 98.5743 146.712C98.5564 147.282 98.4525 147.84 98.2689 148.354C97.9727 149.067 97.5408 149.661 97.0175 150.075C96.4942 150.49 95.8984 150.71 95.2911 150.712C93.2086 150.956 91.1154 150.987 89.0294 150.806C86.2364 150.703 83.4881 149.837 80.9518 148.26C80.3369 147.856 79.7561 147.363 79.2194 146.791C78.4687 146.01 77.9012 144.954 77.5844 143.75C76.4718 139.381 75.7114 134.864 75.3163 130.276C74.9744 126.469 74.9278 122.625 75.1772 118.805C75.9494 107.427 79.2751 97.6486 85.662 90.0133C91.3523 83.0102 98.166 77.8648 105.574 74.9766C107.481 74.273 109.43 73.7878 111.398 73.5263C112.01 73.442 112.636 73.4233 113.255 73.3672H113.353C114.271 73.3672 115.189 73.3672 116.136 73.3672C120.58 73.7498 124.921 75.3414 128.896 78.0457C131.839 79.9732 133.696 83.1452 135.324 86.7196C136.563 89.4425 137.648 92.2683 138.692 95.1409C139.227 96.6099 139.944 97.948 140.403 99.4919C141.81 104.072 142.747 108.888 143.186 113.808C143.343 115.612 143.378 117.432 143.29 119.244C143.113 122.489 142.658 125.694 141.934 128.798C141.189 132.073 139.415 134 137.544 135.919C137.229 135.294 136.943 134.644 136.688 133.972C135.578 131.515 134.344 129.164 132.993 126.936C133.174 127.011 133.223 126.805 133.279 126.665C133.48 126.187 133.689 125.729 133.856 125.224C134.587 122.825 135.083 120.309 135.331 117.738C135.512 116.232 135.658 114.725 135.769 113.209C135.922 112.214 135.937 111.189 135.811 110.187C134.879 105.375 133.546 100.721 131.839 96.3105C130.22 91.9432 127.392 88.6039 123.963 87.0097C123.037 86.5699 122.036 86.364 121.131 85.8588C119.371 84.9929 117.516 84.528 115.642 84.4833C114.153 84.3523 112.664 84.5488 111.189 84.4833C108.019 84.3857 104.875 85.2793 102.005 87.0939C97.6764 89.5081 93.9055 93.4328 91.0819 98.4626C87.3596 105.265 85.7942 113.078 85.3211 121.369V121.537V122.22V123.053C85.3211 123.184 85.3211 123.324 85.3211 123.464C84.9119 126.131 84.8812 128.877 85.2307 131.558C85.4171 132.96 85.9003 134.259 86.6221 135.301C87.7121 136.75 89.1558 137.617 90.6853 137.743C91.2514 137.863 91.8238 137.919 92.3968 137.912V137.912Z" fill="#EF6522"/>
<path d="M92.7907 137.819C92.1885 137.849 91.5856 137.808 90.9887 137.698C89.4592 137.572 88.0155 136.704 86.9255 135.256C86.2037 134.214 85.7205 132.914 85.5341 131.513C85.1846 128.831 85.2153 126.085 85.6245 123.419C85.6245 123.279 85.6245 123.138 85.6245 123.007C85.7636 122.764 85.701 122.455 85.7776 122.184C86.1372 120.072 86.6571 118.015 87.3291 116.046C88.3421 113.113 89.6203 110.36 91.1348 107.849C92.3887 105.784 93.7866 103.885 95.3093 102.179C97.2315 100.082 99.4318 98.4946 101.794 97.5001C104.611 96.1614 107.519 95.1993 110.476 94.6275C111.388 94.4684 112.292 94.3655 113.204 94.2813C114.011 94.1693 114.825 94.1693 115.632 94.2813C117.065 94.5526 118.464 95.0766 119.89 95.4228C120.059 95.452 120.219 95.546 120.35 95.6936C120.48 95.8413 120.577 96.0363 120.627 96.2556C121.077 97.7463 121.124 99.4018 120.76 100.934C120.634 101.505 120.565 102.094 120.113 102.431C119.249 103.131 118.267 103.521 117.26 103.563C115.589 103.58 113.92 103.743 112.265 104.05C110.263 104.315 108.276 104.749 106.316 105.351C104.337 105.952 102.445 106.985 100.715 108.41C99.5748 109.43 98.4869 110.552 97.4591 111.769C96.2769 113.063 95.2472 114.59 94.4048 116.298C93.709 117.795 93.2151 119.405 93.5908 121.22C93.7046 122.02 93.9409 122.779 94.2846 123.449C94.6284 124.119 95.0721 124.686 95.5876 125.113C96.3525 125.6 97.201 125.8 98.0435 125.693C98.8812 125.666 99.7142 125.515 100.527 125.244C103.995 123.984 107.319 122.095 110.407 119.629C112.17 118.198 114.035 117.004 115.973 116.064C118.204 115.011 120.593 114.712 122.93 115.194C124.059 115.366 125.135 115.927 126.054 116.822C130.347 121.691 134.041 127.441 136.998 133.861C137.253 134.533 137.539 135.183 137.854 135.808C138.063 136.743 138.425 137.604 138.647 138.549C139.454 142.011 138.299 144.257 135.864 145.155C135.316 145.511 134.691 145.587 134.104 145.37C133.197 144.832 132.359 144.106 131.62 143.218L130.556 141.918C130.229 141.375 129.86 140.907 129.505 140.374C128.466 138.73 127.535 136.967 126.722 135.106C126.026 133.562 125.637 131.84 124.878 130.371C124.105 128.666 123.146 127.127 122.033 125.805C121.264 125.006 120.361 124.477 119.402 124.264C118.444 124.052 117.462 124.163 116.543 124.589C114.663 125.398 112.878 126.564 111.242 128.051C108.709 130.147 106.295 132.505 103.589 134.226C101.654 135.375 99.6405 136.268 97.5774 136.893C96.0056 137.393 94.4036 137.703 92.7907 137.819V137.819Z" fill="#FAE203"/>
<path d="M43.3002 55.832C43.4881 55.832 43.6759 55.832 43.8638 55.832C44.2787 55.8464 44.6873 55.9732 45.065 56.2047C45.4428 56.4362 45.782 56.7677 46.0623 57.1794C47.8038 59.5188 49.7124 61.6218 51.7604 63.458C56.1367 67.7154 60.652 71.7015 65.2579 75.4911C67.2338 77.1192 69.3767 78.373 71.45 79.7859C73.0502 80.8807 74.6434 81.9567 76.2437 83.0234C77.2976 83.711 78.2137 84.7281 78.9153 85.9896C79.0753 86.2703 79.2214 86.5604 79.3954 86.8224C80.8286 89.0306 80.9608 91.5664 80.4251 94.308C80.2581 95.1407 80.0563 95.9641 79.8754 96.7876C79.7713 97.2823 79.5954 97.7444 79.358 98.1475C79.1206 98.5505 78.8263 98.8864 78.4921 99.136C78.1578 99.3856 77.7902 99.5438 77.4103 99.6016C77.0304 99.6595 76.6457 99.6158 76.2784 99.473C75.4245 99.1963 74.6867 98.4764 74.226 97.4706C73.1198 95.122 71.7909 92.9886 70.5316 90.7804C70.2472 90.3499 69.9824 89.8968 69.7385 89.4236C67.313 84.1547 64.1177 79.6026 60.3459 76.0431C58.857 74.6021 57.5629 72.8711 55.9975 71.5143C52.1222 68.1178 48.08 65.0954 44.0099 62.1574C42.9245 61.3714 41.8322 60.5979 40.7329 59.8368C40.4916 59.6398 40.2958 59.3565 40.1672 59.0186C40.0387 58.6806 39.9824 58.3013 40.0048 57.9228C40.0272 57.5444 40.1272 57.1818 40.2939 56.8754C40.4605 56.569 40.6872 56.3309 40.9486 56.1876C41.3448 55.971 41.7665 55.8506 42.194 55.832H42.2983H43.1402H43.3002Z" fill="#EF6522"/>
<path d="M147.497 88.2063C148.541 88.2624 149.584 88.384 150.635 88.3747C153.264 88.2733 155.837 87.3337 158.142 85.6331C159.942 84.3541 161.63 82.8067 163.172 81.0201C165.704 78.0921 168.816 76.2193 172.127 75.6305C173.323 75.4246 174.513 75.2375 175.724 75.1439C177.079 74.9417 178.45 75.027 179.787 75.3965C180.532 75.6928 181.199 76.2709 181.707 77.0621C182.166 77.7358 182.076 78.3627 181.484 78.8586C180.992 79.2961 180.4 79.485 179.815 79.392C177.955 79.1862 176.083 79.4205 174.283 80.0844C173.108 80.44 171.953 80.9265 170.805 81.4318C169.989 81.8015 169.228 82.3622 168.557 83.088C166.694 85.1846 164.75 87.1492 162.734 88.9735C161.398 90.1338 159.951 91.0133 158.56 92.0613C156.312 93.7643 154.204 95.748 152.054 97.6755C150.764 98.8369 149.245 99.4527 147.692 99.444C146.981 99.4728 146.277 99.2429 145.655 98.7784C145.033 98.314 144.516 97.6323 144.158 96.8053C143.525 95.4994 143.187 93.9754 143.184 92.4169C143.184 90.1244 144.638 88.384 146.516 88.253C146.836 88.253 147.156 88.253 147.476 88.253L147.497 88.2063Z" fill="#EF6522"/>
<path d="M63.9736 114.154C65.0868 114.154 66.2069 114.276 67.3201 114.285C68.2256 114.362 69.0813 114.87 69.7343 115.717C70.4766 116.401 71.0821 117.321 71.4971 118.395C71.9121 119.469 72.1239 120.663 72.1138 121.874C72.0651 124.166 71.3137 125.401 69.7135 126.169C69.2759 126.398 68.805 126.489 68.3371 126.436C67.8692 126.382 67.4165 126.185 67.014 125.86C64.9937 124.385 63.0442 122.741 61.1767 120.938C59.9376 119.815 58.4944 119.168 57.0022 119.067C54.7256 118.865 52.467 118.389 50.2535 117.644C49.2293 117.298 48.1787 117.113 47.1227 117.092C45.4658 117.015 43.8173 116.74 42.1968 116.269C40.367 115.707 40.0539 113.733 40.1931 112.058C40.2096 111.74 40.3049 111.438 40.4638 111.2C40.6226 110.963 40.8359 110.804 41.0697 110.748C42.0265 110.441 43.0276 110.493 43.964 110.898C45.7879 111.698 47.6593 112.286 49.5578 112.657C51.0815 112.975 52.6051 113.303 54.1358 113.452C55.0542 113.546 55.9795 113.658 56.9188 113.742C59.2356 113.958 61.5524 114.051 63.8762 114.135L63.9736 114.154Z" fill="#EF6522"/>
<path d="M94.7118 76.7171C93.6021 76.5409 92.5144 76.1697 91.4766 75.6129C89.3059 74.6773 88.2901 72.4784 87.6778 69.7461C87.1937 67.7779 86.8694 65.7449 86.7107 63.6828C86.4835 59.883 85.9801 56.1223 85.2079 52.4544C84.8879 50.9573 84.387 49.535 84.1226 48.0099C84.0789 47.7007 84.0789 47.3833 84.1226 47.0742C84.1232 46.9354 84.1607 46.8016 84.2283 46.6969C84.296 46.5922 84.3893 46.5235 84.4913 46.5034C84.8462 46.5034 85.2427 46.3443 85.5002 46.8309C85.8967 47.5794 86.2863 48.328 86.662 49.0953C88.3388 52.5106 89.9112 56.0101 91.7271 59.2944C92.6872 61.0254 93.9395 62.4009 94.9762 64.0384C95.6719 65.1893 96.4999 66.2466 97.2304 67.3882C97.9198 68.5829 98.3659 69.9987 98.5245 71.4959C98.6262 72.088 98.6451 72.7004 98.5801 73.3018C98.3714 75.1732 97.4391 76.3241 95.8389 76.6609C95.4658 76.7341 95.0879 76.7529 94.7118 76.7171V76.7171Z" fill="#EF6522"/>
<path d="M124.644 73.0117C123.35 73.2082 121.75 71.3368 121.332 69.8396C121.224 69.4406 121.175 69.0164 121.19 68.592C121.205 68.1675 121.283 67.7513 121.419 67.3678C121.555 66.9843 121.747 66.6412 121.983 66.3587C122.219 66.0762 122.494 65.8599 122.793 65.7226C125.034 64.5624 126.953 62.5004 128.29 59.8183C129.02 58.3695 129.485 56.7085 129.646 54.9714C129.707 54.4099 129.824 53.8622 129.994 53.3433C130.703 50.942 131.171 48.4248 131.386 45.8577C131.386 45.6986 131.428 45.5489 131.441 45.3898C131.49 44.9968 131.657 44.922 131.915 45.0717C132.395 45.3244 132.789 45.8076 133.02 46.4279C133.252 47.0482 133.304 47.7618 133.167 48.4309C132.798 50.6017 132.36 52.7538 132.137 54.9808C131.949 56.8521 131.441 58.527 131.247 60.361C131.163 61.2125 131.247 62.0733 131.142 62.9342C131.047 63.6664 130.866 64.3738 130.607 65.0302C130.106 66.2653 129.779 67.6127 129.271 68.8384C128.732 70.3967 127.824 71.6703 126.689 72.4596C126.044 72.8352 125.347 73.0233 124.644 73.0117V73.0117Z" fill="#EE6422"/>
<path d="M126.708 135.096C127.521 136.957 128.452 138.719 129.491 140.364C129.832 140.897 130.187 141.365 130.542 141.908C130.319 142.048 130.09 142.17 129.846 142.338C129.228 142.871 128.482 143.072 127.759 142.899C126.69 142.782 125.639 142.467 124.635 141.964C124.429 141.888 124.238 141.75 124.078 141.559C123.918 141.369 123.793 141.131 123.713 140.865C123.632 140.599 123.598 140.312 123.613 140.025C123.628 139.739 123.692 139.461 123.8 139.213C124.219 137.918 124.825 136.748 125.581 135.769C125.922 135.367 126.353 135.367 126.708 135.096Z" fill="#EF6522"/>
<path d="M113.784 73.2718H113.688C113.722 73.2265 113.75 73.2175 113.784 73.2718Z" fill="#61290C"/>
</g>
<defs>
<filter id="filter0_dddddd_233_64" x="0.522167" y="45" width="220.956" height="194.747" filterUnits="userSpaceOnUse" color-interpolation-filters="sRGB">
<feFlood flood-opacity="0" result="BackgroundImageFix"/>
<feColorMatrix in="SourceAlpha" type="matrix" values="0 0 0 0 0 0 0 0 0 0 0 0 0 0 0 0 0 0 127 0" result="hardAlpha"/>
<feOffset dy="1.36557"/>
<feGaussianBlur stdDeviation="0.546227"/>
<feColorMatrix type="matrix" values="0 0 0 0 0 0 0 0 0 0 0 0 0 0 0 0 0 0 0.104024 0"/>
<feBlend mode="normal" in2="BackgroundImageFix" result="effect1_dropShadow_233_64"/>
<feColorMatrix in="SourceAlpha" type="matrix" values="0 0 0 0 0 0 0 0 0 0 0 0 0 0 0 0 0 0 127 0" result="hardAlpha"/>
<feOffset dy="3.28165"/>
<feGaussianBlur stdDeviation="1.31266"/>
<feColorMatrix type="matrix" values="0 0 0 0 0 0 0 0 0 0 0 0 0 0 0 0 0 0 0.14944 0"/>
<feBlend mode="normal" in2="effect1_dropShadow_233_64" result="effect2_dropShadow_233_64"/>
<feColorMatrix in="SourceAlpha" type="matrix" values="0 0 0 0 0 0 0 0 0 0 0 0 0 0 0 0 0 0 127 0" result="hardAlpha"/>
<feOffset dy="6.17905"/>
<feGaussianBlur stdDeviation="2.47162"/>
<feColorMatrix type="matrix" values="0 0 0 0 0 0 0 0 0 0 0 0 0 0 0 0 0 0 0.185 0"/>
<feBlend mode="normal" in2="effect2_dropShadow_233_64" result="effect3_dropShadow_233_64"/>
<feColorMatrix in="SourceAlpha" type="matrix" values="0 0 0 0 0 0 0 0 0 0 0 0 0 0 0 0 0 0 127 0" result="hardAlpha"/>
<feOffset dy="11.0224"/>
<feGaussianBlur stdDeviation="4.40895"/>
<feColorMatrix type="matrix" values="0 0 0 0 0 0 0 0 0 0 0 0 0 0 0 0 0 0 0.22056 0"/>
<feBlend mode="normal" in2="effect3_dropShadow_233_64" result="effect4_dropShadow_233_64"/>
<feColorMatrix in="SourceAlpha" type="matrix" values="0 0 0 0 0 0 0 0 0 0 0 0 0 0 0 0 0 0 127 0" result="hardAlpha"/>
<feOffset dy="20.6161"/>
<feGaussianBlur stdDeviation="8.24645"/>
<feColorMatrix type="matrix" values="0 0 0 0 0 0 0 0 0 0 0 0 0 0 0 0 0 0 0.265976 0"/>
<feBlend mode="normal" in2="effect4_dropShadow_233_64" result="effect5_dropShadow_233_64"/>
<feColorMatrix in="SourceAlpha" type="matrix" values="0 0 0 0 0 0 0 0 0 0 0 0 0 0 0 0 0 0 127 0" result="hardAlpha"/>
<feOffset dy="49.3473"/>
<feGaussianBlur stdDeviation="19.7389"/>
<feColorMatrix type="matrix" values="0 0 0 0 0 0 0 0 0 0 0 0 0 0 0 0 0 0 0.37 0"/>
<feBlend mode="normal" in2="effect5_dropShadow_233_64" result="effect6_dropShadow_233_64"/>
<feBlend mode="normal" in="SourceGraphic" in2="effect6_dropShadow_233_64" result="shape"/>
</filter>
</defs>
</svg>
