<svg width="20" height="18" viewBox="0 0 20 18" fill="none" xmlns="http://www.w3.org/2000/svg">
<path d="M3.56641 1.65724C3.9435 1.55472 4.34029 1.5 4.74986 1.5H15.2499C15.6594 1.5 16.0562 1.55472 16.4333 1.65724C15.9406 0.674537 14.924 0 13.7499 0H6.24986C5.0757 0 4.0591 0.674537 3.56641 1.65724Z" fill="white"/>
<path d="M0.25 9C0.25 7.34315 1.59315 6 3.25 6H16.75C18.4069 6 19.75 7.34315 19.75 9V15C19.75 16.6569 18.4069 18 16.75 18H3.25C1.59315 18 0.25 16.6569 0.25 15V9Z" fill="white"/>
<path d="M3.24986 4.5C2.84029 4.5 2.4435 4.55472 2.06641 4.65724C2.5591 3.67454 3.5757 3 4.74986 3H15.2499C16.424 3 17.4406 3.67454 17.9333 4.65724C17.5562 4.55472 17.1594 4.5 16.7499 4.5H3.24986Z" fill="white"/>
</svg>
