<svg width="61" height="65" viewBox="0 0 61 65" fill="none" xmlns="http://www.w3.org/2000/svg">
<path d="M30.8379 43.3866C30.5996 43.4429 30.4103 43.9967 30.4103 44.6488C30.4103 45.3009 30.6348 45.841 30.9435 45.8689H31.0277L31.0272 45.8694C33.5564 45.9545 36.0519 45.2735 38.1869 43.9154C40.3224 42.5573 41.9969 40.5863 42.992 38.2596C44.3984 34.9852 44.4263 31.2819 43.0693 27.9866C41.7122 24.6912 39.0846 22.0817 35.7799 20.7471C32.4752 19.4125 28.7729 19.4659 25.5078 20.8943C23.1923 21.9041 21.2365 23.5904 19.8969 25.7322C18.5575 27.8741 17.8975 30.3705 18.0032 32.8944C18.0032 33.2031 18.5364 33.4345 19.1885 33.4277C19.8407 33.4208 20.3807 33.2315 20.416 33.0001V32.9296C20.708 31.119 21.4967 29.4249 22.6942 28.036C23.8913 26.6466 25.4505 25.6169 27.198 25.0606C29.3627 24.3713 31.7061 24.5068 33.7769 25.4407C35.8483 26.3751 37.5008 28.0419 38.4172 30.1205C39.334 32.1993 39.4494 34.5435 38.742 36.703C38.1696 38.4378 37.1286 39.9808 35.7334 41.1608C34.3386 42.3403 32.6441 43.1107 30.8379 43.3866Z" fill="black"/>
<path d="M59.761 50.7286C60.0673 49.8652 60.2537 48.9635 60.3148 48.0491C60.3848 47.0952 60.3637 46.4851 60.3921 45.6926L60.5746 36.6456L60.7287 27.6263L60.7987 23.1167V20.8652C60.7987 20.1006 60.8407 19.4627 60.7987 18.3892H60.7991C60.626 16.448 59.9352 14.5885 58.7992 13.0044C57.6632 11.4208 56.1232 10.1704 54.3395 9.38426C52.9858 8.79964 51.529 8.49193 50.0545 8.47969H45.7904L44.0718 5.84227L42.8306 3.92748C42.2778 3.03515 41.5646 2.2524 40.7264 1.62031C39.8478 0.963782 38.8459 0.491691 37.7808 0.231405C37.2446 0.102258 36.6977 0.0244718 36.1468 0H24.6653C24.1169 0.0210365 23.5714 0.0988216 23.0387 0.231405C21.9703 0.496074 20.9659 0.973062 20.0858 1.63447C19.2512 2.27045 18.5385 3.05218 17.9817 3.94163L16.7474 5.84227L14.9871 8.45865H10.9404C10.5686 8.45865 10.0285 8.49387 9.5799 8.53595V8.53546C8.64451 8.65287 7.72773 8.88867 6.85156 9.237C3.29049 10.6439 0.737857 13.8288 0.139462 17.6109C-0.00387474 19.1847 -0.0371509 20.7663 0.0416186 22.3451L0.104728 26.7005L0.258835 35.4111L0.433971 44.1216L0.482892 46.2957V47.3827C0.482892 47.7966 0.518115 48.2594 0.581225 48.687L0.581714 48.6875C0.830239 50.4383 1.53128 52.0943 2.61536 53.4915C3.68185 54.8745 5.09172 55.9552 6.70418 56.6264C8.26229 57.2457 9.94188 57.5001 11.6135 57.37L20.1978 57.1176C18.5457 59.049 17.0383 61.1003 15.6881 63.2543C15.6319 63.3737 15.9474 63.8223 16.3897 64.2851C16.8314 64.7479 17.3016 65.0708 17.4205 64.9866C20.7623 62.9358 23.8546 60.5044 26.6363 57.7418C27.1226 57.254 27.3961 56.5931 27.3961 55.9043C27.3961 55.215 27.1226 54.5546 26.6363 54.0667C23.8464 51.2782 20.7423 48.8233 17.3858 46.7515C17.2874 46.6815 16.8457 46.9971 16.3829 47.453C15.9201 47.909 15.6114 48.3649 15.6813 48.4628C17.0394 50.6163 18.5541 52.6676 20.212 54.5995H20.0716L11.41 54.3681C8.9845 54.4894 6.67195 53.332 5.31535 51.3174C4.6872 50.3605 4.3105 49.2602 4.22145 48.1194V46.1279L4.27038 43.9606L4.46704 35.2985L4.6143 26.6228L4.67741 22.2815V22.282C4.6505 20.9733 4.70187 19.6642 4.83151 18.3613C5.2312 16.2871 6.69057 14.5753 8.67487 13.8517C9.76533 13.4911 10.9209 13.3693 12.0627 13.4941L16.3899 13.5572C17.2304 13.5621 18.019 13.1497 18.494 12.456L21.0189 8.64791L22.2741 6.77521C22.5026 6.37551 22.8103 6.02719 23.1787 5.75127C23.506 5.50959 23.8778 5.33544 24.2731 5.23906C24.4698 5.18525 24.6723 5.15247 24.8763 5.14122H35.9434C36.1439 5.15198 36.3435 5.17987 36.5392 5.22537C36.935 5.32028 37.3068 5.49443 37.6336 5.73708C37.9995 6.01349 38.3048 6.36231 38.5313 6.76102L39.7935 8.64788L42.3394 12.3997C42.7982 13.1188 43.5908 13.5547 44.4435 13.5572H50.0544C50.3215 13.5557 50.5886 13.5723 50.8538 13.6061C51.3787 13.6756 51.8929 13.8121 52.3826 14.0131C53.3722 14.4334 54.2318 15.1095 54.8727 15.9725C55.5141 16.8355 55.9133 17.8536 56.0297 18.9225L56.3663 36.7717L56.5346 45.8187C56.5698 47.46 56.6608 48.5398 56.2469 49.6689V49.6694C55.8766 50.8083 55.2083 51.8277 54.3116 52.6218C53.3923 53.4216 52.2759 53.9617 51.0784 54.1857C49.6592 54.3281 48.2336 54.3981 46.8071 54.3961L37.76 54.6627C36.8344 54.6627 36.105 55.217 36.105 55.8691C36.105 56.5213 36.8065 57.0545 37.76 57.0824H38.0193L47.0317 57.349C48.6251 57.4493 50.2233 57.4351 51.8147 57.307C53.6048 57.0271 55.2847 56.2659 56.6751 55.1045C58.0748 53.9465 59.1404 52.4358 59.7612 50.7285L59.761 50.7286Z" fill="black"/>
</svg>
