<svg width="291" height="543" viewBox="0 0 291 543" fill="none" xmlns="http://www.w3.org/2000/svg">
<path d="M289.552 536.493L290.016 536.677L289.552 536.493C288.72 538.591 287.4 540.274 285.802 541.319L285.802 541.319C284.929 541.891 283.903 542.192 282.442 542.345C280.97 542.499 279.107 542.5 276.571 542.5H14.4294C11.8935 542.5 10.0301 542.499 8.55838 542.345C7.09735 542.192 6.07089 541.891 5.19775 541.32C3.60019 540.274 2.2803 538.591 1.44772 536.493C0.984131 535.325 0.743286 533.955 0.621857 532.046C0.500214 530.135 0.5 527.722 0.5 524.473V417.797C7.7551 417.461 13.374 409.853 13.374 400.778C13.374 391.704 7.7551 384.095 0.5 383.76L0.5 18.5274C0.5 15.2787 0.500214 12.8656 0.621857 10.9543C0.743286 9.0462 0.984131 7.67596 1.44772 6.50775C2.28012 4.40912 3.59985 2.72766 5.19763 1.67993C6.0708 1.10901 7.09732 0.808167 8.55835 0.654968C10.0301 0.500671 11.8935 0.5 14.4294 0.5H276.571C279.107 0.5 280.97 0.500671 282.442 0.654968C283.902 0.808167 284.929 1.10889 285.802 1.67957C287.4 2.72729 288.72 4.40887 289.552 6.50769C290.016 7.67596 290.257 9.0462 290.378 10.9543C290.5 12.8656 290.5 15.2787 290.5 18.5274L290.5 383.76C283.245 384.095 277.626 391.704 277.626 400.778C277.626 409.853 283.245 417.461 290.5 417.797V524.473C290.5 527.722 290.5 530.135 290.378 532.046C290.257 533.955 290.016 535.325 289.552 536.493ZM252.711 390.922C248.301 390.922 244.924 395.458 244.924 400.778C244.924 406.098 248.301 410.635 252.711 410.635C257.121 410.635 260.498 406.098 260.498 400.778C260.498 395.458 257.121 390.922 252.711 390.922ZM227.116 390.922C222.706 390.922 219.329 395.458 219.329 400.778C219.329 406.098 222.706 410.635 227.116 410.635C231.526 410.635 234.903 406.098 234.903 400.778C234.903 395.458 231.526 390.922 227.116 390.922ZM199.911 390.922C195.501 390.922 192.124 395.458 192.124 400.778C192.124 406.098 195.501 410.635 199.911 410.635C204.321 410.635 207.698 406.098 207.698 400.778C207.698 395.458 204.321 390.922 199.911 390.922ZM172.705 390.922C168.296 390.922 164.918 395.458 164.918 400.778C164.918 406.098 168.296 410.635 172.705 410.635C177.115 410.635 180.493 406.098 180.493 400.778C180.493 395.458 177.115 390.922 172.705 390.922ZM145.5 390.922C141.09 390.922 137.713 395.458 137.713 400.778C137.713 406.098 141.09 410.635 145.5 410.635C149.91 410.635 153.287 406.098 153.287 400.778C153.287 395.458 149.91 390.922 145.5 390.922ZM118.295 390.922C113.885 390.922 110.507 395.458 110.507 400.778C110.507 406.098 113.885 410.635 118.295 410.635C122.705 410.635 126.082 406.098 126.082 400.778C126.082 395.458 122.705 390.922 118.295 390.922ZM91.0894 390.922C86.6794 390.922 83.3023 395.458 83.3023 400.778C83.3023 406.098 86.6794 410.635 91.0894 410.635C95.4992 410.635 98.8766 406.098 98.8766 400.778C98.8766 395.458 95.4992 390.922 91.0894 390.922ZM63.8839 390.922C59.4741 390.922 56.097 395.458 56.097 400.778C56.097 406.098 59.4741 410.635 63.8839 410.635C68.2939 410.635 71.6711 406.098 71.6711 400.778C71.6711 395.458 68.2939 390.922 63.8839 390.922ZM36.6787 390.922C32.2686 390.922 28.8915 395.458 28.8915 400.778C28.8915 406.098 32.2686 410.635 36.6787 410.635C41.0884 410.635 44.4659 406.098 44.4659 400.778C44.4659 395.458 41.0884 390.922 36.6787 390.922Z" fill="white" stroke="url(#paint0_linear_1245_298)"/>
<path d="M288.158 535.94L288.158 535.94C287.421 537.797 286.281 539.214 284.981 540.064L284.981 540.064C284.382 540.456 283.618 540.713 282.285 540.853C280.91 540.997 279.138 541 276.571 541H14.4294C11.8618 541 10.0903 540.997 8.71487 540.853C7.38254 540.713 6.61777 540.456 6.01904 540.064C4.71896 539.214 3.57883 537.797 2.84201 535.94L2.84195 535.94C2.46213 534.983 2.23593 533.791 2.11884 531.951C2.00095 530.098 2 527.741 2 524.473V419.148C9.59412 417.916 14.874 409.75 14.874 400.778C14.874 391.807 9.59412 383.641 2 382.408L2 18.5274C2 15.2593 2.00095 12.9021 2.11884 11.0496C2.23593 9.20941 2.46213 8.01819 2.84195 7.06097L0.982971 6.3233L2.84207 7.06073C3.57813 5.20496 4.71738 3.78925 6.01843 2.93542C6.61728 2.54388 7.3822 2.2865 8.71475 2.14679C10.0903 2.00256 11.8619 2 14.4294 2H276.571C279.138 2 280.91 2.00256 282.285 2.14679C283.618 2.2865 284.383 2.54388 284.981 2.93536C286.283 3.78906 287.422 5.20483 288.158 7.06079L290.017 6.32336L288.158 7.06097C288.538 8.01819 288.764 9.20941 288.881 11.0496C288.999 12.9021 289 15.2593 289 18.5274L289 382.408C281.406 383.641 276.126 391.807 276.126 400.778C276.126 409.75 281.406 417.916 289 419.148V524.473C289 527.741 288.999 530.098 288.881 531.951C288.764 533.791 288.538 534.983 288.158 535.94ZM252.711 389.422C247.145 389.422 243.424 395 243.424 400.778C243.424 406.556 247.145 412.135 252.711 412.135C258.277 412.135 261.998 406.556 261.998 400.778C261.998 395.001 258.277 389.422 252.711 389.422ZM227.116 389.422C221.55 389.422 217.829 395.001 217.829 400.778C217.829 406.556 221.55 412.135 227.116 412.135C232.682 412.135 236.403 406.556 236.403 400.778C236.403 395 232.682 389.422 227.116 389.422ZM199.911 389.422C194.345 389.422 190.624 395.001 190.624 400.778C190.624 406.556 194.345 412.135 199.911 412.135C205.476 412.135 209.198 406.556 209.198 400.778C209.198 395.001 205.476 389.422 199.911 389.422ZM172.705 389.422C167.14 389.422 163.418 395 163.418 400.778C163.418 406.556 167.14 412.135 172.705 412.135C178.271 412.135 181.993 406.556 181.993 400.778C181.993 395.001 178.271 389.422 172.705 389.422ZM145.5 389.422C139.934 389.422 136.213 395.001 136.213 400.778C136.213 406.556 139.934 412.135 145.5 412.135C151.066 412.135 154.787 406.556 154.787 400.778C154.787 395.001 151.066 389.422 145.5 389.422ZM118.295 389.422C112.729 389.422 109.007 395 109.007 400.778C109.007 406.556 112.729 412.135 118.295 412.135C123.861 412.135 127.582 406.556 127.582 400.778C127.582 395.001 123.861 389.422 118.295 389.422ZM91.0894 389.422C85.5235 389.422 81.8023 395.001 81.8023 400.778C81.8023 406.556 85.5235 412.135 91.0894 412.135C96.655 412.135 100.377 406.556 100.377 400.778C100.377 395 96.655 389.422 91.0894 389.422ZM63.8839 389.422C58.3182 389.422 54.597 395.001 54.597 400.778C54.597 406.556 58.3182 412.135 63.8839 412.135C69.4498 412.135 73.1711 406.556 73.1711 400.778C73.1711 395.001 69.4498 389.422 63.8839 389.422ZM36.6787 389.422C31.1128 389.422 27.3915 395.001 27.3915 400.778C27.3915 406.556 31.1128 412.135 36.6787 412.135C42.2442 412.135 45.9659 406.556 45.9659 400.778C45.9659 395 42.2442 389.422 36.6787 389.422Z" fill="#D9D9D9" fill-opacity="0.02" stroke="url(#paint1_linear_1245_298)" stroke-width="4"/>
<defs>
<linearGradient id="paint0_linear_1245_298" x1="0" y1="543" x2="396.809" y2="93.3813" gradientUnits="userSpaceOnUse">
<stop stop-color="#737373"/>
<stop offset="1" stop-opacity="0.03"/>
</linearGradient>
<linearGradient id="paint1_linear_1245_298" x1="291" y1="543" x2="-105.809" y2="93.3813" gradientUnits="userSpaceOnUse">
<stop offset="0.015625" stop-color="#FDCD89"/>
<stop offset="0.239583" stop-color="#996721"/>
<stop offset="0.458333" stop-color="#BF7C1D"/>
<stop offset="0.729167" stop-color="#CB903B"/>
<stop offset="1" stop-color="#F3C481"/>
</linearGradient>
</defs>
</svg>
