<svg width="53" height="21" viewBox="0 0 53 21" fill="none" xmlns="http://www.w3.org/2000/svg">
<rect x="1.69871" y="1.81004" width="50.4427" height="17.9542" rx="8.9771" stroke="#00950F" stroke-width="1.70992"/>
<path d="M22.1684 11.9174H20.6197V10.9405H22.1684C22.4078 10.9405 22.6026 10.9015 22.7529 10.8236C22.9032 10.7429 23.0131 10.6316 23.0827 10.4896C23.1523 10.3477 23.187 10.1877 23.187 10.0096C23.187 9.82866 23.1523 9.66028 23.0827 9.50443C23.0131 9.34858 22.9032 9.22334 22.7529 9.12871C22.6026 9.03409 22.4078 8.98678 22.1684 8.98678H21.0538V14.084H19.8014V8.00574H22.1684C22.6443 8.00574 23.0521 8.09202 23.3916 8.26457C23.7339 8.43433 23.9955 8.6695 24.1764 8.97008C24.3573 9.27065 24.4478 9.61436 24.4478 10.0012C24.4478 10.3936 24.3573 10.7332 24.1764 11.0198C23.9955 11.3065 23.7339 11.5277 23.3916 11.6836C23.0521 11.8394 22.6443 11.9174 22.1684 11.9174ZM27.3468 9.04522L25.6936 14.084H24.3619L26.6204 8.00574H27.4679L27.3468 9.04522ZM28.7202 14.084L27.0629 9.04522L26.9293 8.00574H27.7851L30.0561 14.084H28.7202ZM28.6451 11.8213V12.8024H25.4348V11.8213H28.6451ZM32.2079 8.00574V14.084H30.9597V8.00574H32.2079ZM35.5035 14.084H34.1801L34.1885 13.1071H35.5035C35.8319 13.1071 36.1088 13.0334 36.3342 12.8859C36.5597 12.7356 36.7294 12.5171 36.8436 12.2305C36.9604 11.9438 37.0189 11.5973 37.0189 11.191V10.8946C37.0189 10.5829 36.9855 10.3087 36.9187 10.0722C36.8547 9.83561 36.7587 9.63662 36.6306 9.47521C36.5026 9.31379 36.3454 9.19272 36.1589 9.11201C35.9724 9.02852 35.7582 8.98678 35.516 8.98678H34.1551V8.00574H35.516C35.9224 8.00574 36.2939 8.07532 36.6306 8.21447C36.9702 8.35084 37.2638 8.54705 37.5115 8.80309C37.7592 9.05914 37.9498 9.36527 38.0834 9.72151C38.2198 10.075 38.288 10.4688 38.288 10.9029V11.191C38.288 11.6224 38.2198 12.0162 38.0834 12.3724C37.9498 12.7286 37.7592 13.0348 37.5115 13.2908C37.2666 13.5441 36.973 13.7403 36.6306 13.8794C36.2911 14.0158 35.9154 14.084 35.5035 14.084ZM34.8898 8.00574V14.084H33.6374V8.00574H34.8898Z" fill="#00950F"/>
</svg>
