<svg width="27" height="27" viewBox="0 0 27 27" fill="none" xmlns="http://www.w3.org/2000/svg">
<path d="M18.0833 2.97607C16.7247 2.97607 15.619 4.08172 15.619 5.44036V5.71417H3.29761C3.18876 5.71263 3.08069 5.73274 2.97968 5.77333C2.87867 5.81392 2.78673 5.87418 2.70921 5.95061C2.6317 6.02704 2.57014 6.11811 2.52813 6.21854C2.48611 6.31896 2.46448 6.42674 2.46448 6.5356C2.46448 6.64446 2.48611 6.75223 2.52813 6.85266C2.57014 6.95308 2.6317 7.04416 2.70921 7.12059C2.78673 7.19702 2.87867 7.25728 2.97968 7.29787C3.08069 7.33846 3.18876 7.35857 3.29761 7.35703H15.619V7.63084C15.619 8.98948 16.7247 10.0951 18.0833 10.0951C19.442 10.0951 20.5476 8.98948 20.5476 7.63084V7.35703H23.5595C23.6684 7.35857 23.7764 7.33846 23.8774 7.29787C23.9784 7.25728 24.0704 7.19702 24.1479 7.12059C24.2254 7.04416 24.287 6.95308 24.329 6.85266C24.371 6.75223 24.3926 6.64446 24.3926 6.5356C24.3926 6.42674 24.371 6.31896 24.329 6.21854C24.287 6.11811 24.2254 6.02704 24.1479 5.95061C24.0704 5.87418 23.9784 5.81392 23.8774 5.77333C23.7764 5.73274 23.6684 5.71263 23.5595 5.71417H20.5476V5.44036C20.5476 4.08172 19.442 2.97607 18.0833 2.97607ZM8.7738 9.82131C7.41515 9.82131 6.30951 10.927 6.30951 12.2856V12.5594H3.29761C3.18876 12.5579 3.08069 12.578 2.97968 12.6186C2.87867 12.6592 2.78673 12.7194 2.70921 12.7958C2.6317 12.8723 2.57014 12.9634 2.52813 13.0638C2.48611 13.1642 2.46448 13.272 2.46448 13.3808C2.46448 13.4897 2.48611 13.5975 2.52813 13.6979C2.57014 13.7983 2.6317 13.8894 2.70921 13.9658C2.78673 14.0423 2.87867 14.1025 2.97968 14.1431C3.08069 14.1837 3.18876 14.2038 3.29761 14.2023H6.30951V14.4761C6.30951 15.8347 7.41515 16.9404 8.7738 16.9404C10.1324 16.9404 11.2381 15.8347 11.2381 14.4761V14.2023H23.5595C23.6684 14.2038 23.7764 14.1837 23.8774 14.1431C23.9784 14.1025 24.0704 14.0423 24.1479 13.9658C24.2254 13.8894 24.287 13.7983 24.329 13.6979C24.371 13.5975 24.3926 13.4897 24.3926 13.3808C24.3926 13.272 24.371 13.1642 24.329 13.0638C24.287 12.9634 24.2254 12.8723 24.1479 12.7958C24.0704 12.7194 23.9784 12.6592 23.8774 12.6186C23.7764 12.578 23.6684 12.5579 23.5595 12.5594H11.2381V12.2856C11.2381 10.927 10.1324 9.82131 8.7738 9.82131ZM16.9881 16.6666C15.6294 16.6666 14.5238 17.7722 14.5238 19.1308V19.4046H3.29761C3.18876 19.4031 3.08069 19.4232 2.97968 19.4638C2.87867 19.5044 2.78673 19.5647 2.70921 19.6411C2.6317 19.7175 2.57014 19.8086 2.52813 19.909C2.48611 20.0094 2.46448 20.1172 2.46448 20.2261C2.46448 20.3349 2.48611 20.4427 2.52813 20.5431C2.57014 20.6436 2.6317 20.7346 2.70921 20.8111C2.78673 20.8875 2.87867 20.9478 2.97968 20.9883C3.08069 21.0289 3.18876 21.049 3.29761 21.0475H14.5238V21.3213C14.5238 22.68 15.6294 23.7856 16.9881 23.7856C18.3467 23.7856 19.4524 22.68 19.4524 21.3213V21.0475H23.5595C23.6684 21.049 23.7764 21.0289 23.8774 20.9883C23.9784 20.9478 24.0704 20.8875 24.1479 20.8111C24.2254 20.7346 24.287 20.6436 24.329 20.5431C24.371 20.4427 24.3926 20.3349 24.3926 20.2261C24.3926 20.1172 24.371 20.0094 24.329 19.909C24.287 19.8086 24.2254 19.7175 24.1479 19.6411C24.0704 19.5647 23.9784 19.5044 23.8774 19.4638C23.7764 19.4232 23.6684 19.4031 23.5595 19.4046H19.4524V19.1308C19.4524 17.7722 18.3467 16.6666 16.9881 16.6666Z" fill="white"/>
</svg>
